<svg width="40" height="35" viewBox="0 0 40 35" fill="none" xmlns="http://www.w3.org/2000/svg">
<path d="M30.8549 11.3359C31.83 13.0248 33.9885 13.6032 35.6774 12.6281C35.709 12.6098 35.7385 12.5928 35.7689 12.5724L38.3314 17.0108C38.4824 17.2723 38.3924 17.6082 38.1309 17.7591L11.1211 33.1835C10.8597 33.3344 10.5238 33.2444 10.3728 32.983L7.81032 28.5446C7.83052 28.5357 7.8516 28.5236 7.87058 28.5126C9.55949 27.5375 10.1378 25.379 9.16276 23.6901C8.18766 22.0012 6.02919 21.4229 4.34028 22.3979C4.3213 22.4089 4.30022 22.4211 4.28246 22.4341L1.72117 17.9979C1.57022 17.7364 1.66022 17.4005 1.92168 17.2495L28.9315 1.82518C29.1929 1.67423 29.5288 1.76424 29.6798 2.02569L32.2411 6.46198C32.2082 6.47813 32.1787 6.49517 32.1471 6.51343C30.4582 7.48852 29.8798 9.647 30.8549 11.3359Z" stroke="white" stroke-width="2" stroke-miterlimit="10"/>
<path d="M19.7109 7.10156L20.0761 7.73411" stroke="white" stroke-width="2" stroke-miterlimit="10"/>
<path d="M20.7715 6.89648L29.0559 23.462" stroke="white" stroke-width="2" stroke-miterlimit="10" stroke-dasharray="4 4"/>
<path d="M28.668 22.6172L29.0332 23.2497" stroke="white" stroke-width="2" stroke-miterlimit="10"/>
</svg>
