<svg width="35" height="31" viewBox="0 0 35 31" fill="none" xmlns="http://www.w3.org/2000/svg">
<path d="M1.25412 19.9784H7.25857C7.8859 19.449 9.23017 18.4784 11.2914 18.1254C14.6969 17.6842 17.1166 19.6255 17.5647 19.9784H22.4041C23.4795 19.9784 24.3757 20.8608 24.3757 21.9197C24.3757 22.9786 23.4795 23.861 22.4041 23.861H17.5647" stroke="white" stroke-width="2" stroke-miterlimit="10" stroke-linecap="round" stroke-linejoin="round"/>
<path d="M24.555 21.3019C24.555 21.3019 28.4086 18.9195 30.9179 17.8606C31.8141 17.4194 32.8895 17.8606 33.3376 18.743C33.7857 19.5371 33.5168 20.4195 32.8895 21.0372L23.4795 29.067C22.673 29.773 21.5079 30.1259 20.4325 29.9494L7.97551 28.0964H1.25412" stroke="white" stroke-width="2" stroke-miterlimit="10" stroke-linecap="round" stroke-linejoin="round"/>
<path d="M23.0418 1.91016L25.1615 6.50566L30.1871 7.10152L26.4715 10.5376L27.4578 15.5013L23.0418 13.0294L18.6257 15.5013L19.612 10.5376L15.8965 7.10152L20.9221 6.50566L23.0418 1.91016Z" stroke="white" stroke-width="2" stroke-miterlimit="10" stroke-linecap="round" stroke-linejoin="round"/>
</svg>
