<svg width="34" height="26" viewBox="0 0 34 26" fill="none" xmlns="http://www.w3.org/2000/svg">
<path d="M28.5853 16.3609V20.136H5.42773V5.81381C5.42773 5.2785 5.86053 4.8457 6.39584 4.8457H16.5915" stroke="white" stroke-width="2" stroke-miterlimit="10"/>
<path d="M31.5584 20.4473H2.42702C1.77913 20.4473 1.25391 21.2971 1.25391 22.3454V22.6909C1.25391 23.7392 1.77913 24.5891 2.42702 24.5891H31.5584C32.2063 24.5891 32.7315 23.7392 32.7315 22.6909V22.3454C32.7315 21.2971 32.2063 20.4473 31.5584 20.4473Z" stroke="white" stroke-width="2" stroke-miterlimit="10"/>
<path d="M26.3195 12.6194C29.4186 12.6194 31.9309 10.1071 31.9309 7.00794C31.9309 3.90882 29.4186 1.39648 26.3195 1.39648C23.2203 1.39648 20.708 3.90882 20.708 7.00794C20.708 10.1071 23.2203 12.6194 26.3195 12.6194Z" stroke="white" stroke-width="2" stroke-miterlimit="10"/>
<path d="M26.2754 3.75977V7.56459H28.5027" stroke="white" stroke-width="2" stroke-miterlimit="10"/>
</svg>
