<svg width="34" height="30" viewBox="0 0 34 30" fill="none" xmlns="http://www.w3.org/2000/svg">
<path d="M25.6817 9.98215C26.4669 11.3422 28.2051 11.808 29.5652 11.0227C29.5907 11.008 29.6144 10.9943 29.6389 10.9779L31.7025 14.5521C31.824 14.7626 31.7516 15.0331 31.541 15.1547L9.79031 27.5758C9.57976 27.6973 9.30926 27.6249 9.1877 27.4143L7.12414 23.8401C7.1404 23.833 7.15738 23.8232 7.17266 23.8144C8.53272 23.0291 8.99847 21.2909 8.21324 19.9309C7.42801 18.5708 5.68981 18.1051 4.32975 18.8903C4.31446 18.8991 4.29748 18.9089 4.28318 18.9194L2.2206 15.3469C2.09904 15.1364 2.17152 14.8659 2.38207 14.7443L24.1328 2.32326C24.3433 2.2017 24.6138 2.27418 24.7354 2.48473L26.798 6.05722C26.7715 6.07023 26.7477 6.08395 26.7223 6.09866C25.3622 6.88389 24.8965 8.62209 25.6817 9.98215Z" stroke="#064B87" stroke-width="3" stroke-miterlimit="10" stroke-linejoin="round"/>
<path d="M16.7071 6.57233L17.0012 7.08172" stroke="#064B87" stroke-width="3" stroke-miterlimit="10" stroke-linejoin="round"/>
<path d="M17.5616 6.4063L24.2329 19.7464" stroke="#064B87" stroke-width="3" stroke-miterlimit="10" stroke-linejoin="round" stroke-dasharray="2 2"/>
<path d="M23.92 19.0665L24.214 19.5759" stroke="#064B87" stroke-width="3" stroke-miterlimit="10" stroke-linejoin="round"/>
</svg>
