<svg width="1287" height="582" viewBox="0 0 1287 582" fill="none" xmlns="http://www.w3.org/2000/svg">
<g style="mix-blend-mode:multiply" opacity="0.7">
<mask id="mask0_31_3" style="mask-type:alpha" maskUnits="userSpaceOnUse" x="0" y="0" width="1285" height="555">
<rect width="1284.88" height="554.506" fill="#D9D9D9"/>
</mask>
<g mask="url(#mask0_31_3)">
<path d="M769.979 379.196L782.363 433.347L799.363 371.443L808.656 411.695L819.474 348.225L843.528 414.312L855.873 333.413L873.606 376.083L884.425 333.413L902.198 357.524L909.172 349.791L915.354 297.167L932.374 349.791L943.193 332.759V309.54L957.122 337.398L978.779 318.819V286.321L994.234 314.179L1005.05 257.292L1014.34 298.713L1022.07 257.292L1032.89 278.588L1039.09 257.292L1045.27 280.134L1054.55 225.963L1063.82 257.292L1079.3 171.792L1091.66 257.292L1105.59 215.137L1116.41 250.729V221.323L1130.34 238.356L1145.79 201.198V222.87L1161.27 171.792L1167.45 202.744L1179.81 171.792V190.371L1206.1 131.561L1215.4 159.42L1237.03 140.84V162.513L1247.87 131.561L1257.15 154.78L1274.17 85.2022L1283.44 125.374L1291.17 109.888V133.107L1306.64 85.2022L1314.37 116.075L1323.64 66.5636L1331.39 92.8757L1343.75 35.6116L1351.48 75.8432L1362.32 57.2641V85.2022L1376.23 27.8587L1387.07 61.9238L1396.34 37.1582L1402.52 69.6568L1410.25 27.8587V61.9238L1427.27 6.20625L1438.09 41.7981L1445.83 13.9393L1455.11 41.7981L1469.02 0V540.143L674.099 549.422L661.735 451.927L697.143 498.364L703.483 451.927L724.09 482.879L728.231 425.614L743.686 451.927L751.572 424.068L763.797 444.194L769.979 379.196Z" fill="#25C2E7"/>
<path opacity="0.6" d="M769.979 379.196L782.363 433.347L799.363 371.443L808.656 411.695L819.474 348.225L843.528 414.312L855.873 333.413L873.606 376.083L884.425 333.413L902.198 357.524L909.172 349.791L915.354 297.167L932.374 349.791L943.193 332.759V309.54L957.122 337.398L978.779 318.819V286.321L994.234 314.179L1005.05 257.292L1014.34 298.713L1022.07 257.292L1032.89 278.588L1039.09 257.292L1045.27 280.134L1054.55 225.963L1063.82 257.292L1079.3 171.792L1091.66 257.292L1105.59 215.137L1116.41 250.729V221.323L1130.34 238.356L1145.79 201.198V222.87L1161.27 171.792L1167.45 202.744L1179.81 171.792V190.371L1206.1 131.561L1215.4 159.42L1237.03 140.84V162.513L1247.87 131.561L1257.15 154.78L1274.17 85.2022L1283.44 125.374L1291.17 109.888V133.107L1306.64 85.2022L1314.37 116.075L1323.64 66.5636L1331.39 92.8757L1343.75 35.6116L1351.48 75.8432L1362.32 57.2641V85.2022L1376.23 27.8587L1387.07 61.9238L1396.34 37.1582L1402.52 69.6568L1410.25 27.8587V61.9238L1427.27 6.20625L1438.09 41.7981L1445.83 13.9393L1455.11 41.7981L1469.02 0V540.143L674.099 549.422L661.735 451.927L697.143 498.364L703.483 451.927L724.09 482.879L728.231 425.614L743.686 451.927L751.572 424.068L763.797 444.194L769.979 379.196Z" fill="white"/>
<path d="M957.122 337.4L978.779 318.821V286.322L984.129 318.642L957.122 337.4Z" fill="white"/>
<path d="M994.233 314.178L1005.05 257.291L1001.82 299.624L994.233 314.178Z" fill="white"/>
<path d="M1063.82 257.293L1079.29 171.793L1074.02 226.777L1063.82 257.293Z" fill="white"/>
<path d="M1226.63 332.231C1215.32 344.128 1204.02 356.006 1192.71 367.903C1156.41 332.925 1166.42 339.588 1126.43 299.574C1104.46 328.424 1075.41 362.113 1056.11 392.827C1031.78 374.089 1007.43 355.351 983.099 336.594C975.629 346.785 966.574 355.827 956.35 363.263C931.325 342.205 905.151 322.476 878.025 304.194C874.934 302.112 871.625 299.991 867.9 299.931C863.244 299.872 859.261 303.064 855.735 306.098C811.193 344.148 766.631 382.219 722.089 420.269C716.343 417.295 710.597 414.34 704.871 411.366C703.741 421.181 688.643 418.326 680.519 412.714C658.625 397.585 636.73 382.457 614.836 367.328C609.922 363.917 604.671 360.407 598.688 360.031C593.179 359.694 587.909 362.113 582.935 364.512C556.781 377.143 531.261 391.082 506.513 406.27C493.693 414.142 480.774 422.47 466.172 426.099C451.569 429.727 434.608 427.784 423.928 417.176C418.4 431.254 412.872 445.332 407.344 459.43C405.58 463.931 403.837 469.205 406.234 473.409C407.978 476.462 411.426 478.029 414.655 479.397C563.003 541.261 730.094 528.294 890.785 525.042C981.91 523.198 1073.09 524.824 1164.2 527.401C1221.62 529.027 1279.71 530.99 1335.87 518.855C1356.28 514.434 1380.03 505.907 1383.66 482.47C1387.15 459.886 1371.91 455.028 1357.13 443.23C1312.47 407.519 1272.98 366.336 1226.61 332.251L1226.63 332.231Z" fill="#25C2E7"/>
<path opacity="0.4" d="M1226.63 332.231C1215.32 344.128 1204.02 356.006 1192.71 367.903C1156.41 332.925 1166.42 339.588 1126.43 299.574C1104.46 328.424 1075.41 362.113 1056.11 392.827C1031.78 374.089 1007.43 355.351 983.099 336.594C975.629 346.785 966.574 355.827 956.35 363.263C931.325 342.205 905.151 322.476 878.025 304.194C874.934 302.112 871.625 299.991 867.9 299.931C863.244 299.872 859.261 303.064 855.735 306.098C811.193 344.148 766.631 382.219 722.089 420.269C716.343 417.295 710.597 414.34 704.871 411.366C703.741 421.181 688.643 418.326 680.519 412.714C658.625 397.585 636.73 382.457 614.836 367.328C609.922 363.917 604.671 360.407 598.688 360.031C593.179 359.694 587.909 362.113 582.935 364.512C556.781 377.143 531.261 391.082 506.513 406.27C493.693 414.142 480.774 422.47 466.172 426.099C451.569 429.727 434.608 427.784 423.928 417.176C418.4 431.254 412.872 445.332 407.344 459.43C405.58 463.931 403.837 469.205 406.234 473.409C407.978 476.462 411.426 478.029 414.655 479.397C563.003 541.261 730.094 528.294 890.785 525.042C981.91 523.198 1073.09 524.824 1164.2 527.401C1221.62 529.027 1279.71 530.99 1335.87 518.855C1356.28 514.434 1380.03 505.907 1383.66 482.47C1387.15 459.886 1371.91 455.028 1357.13 443.23C1312.47 407.519 1272.98 366.336 1226.61 332.251L1226.63 332.231Z" fill="white"/>
<path d="M1521.39 365.239C1490.83 333.355 1429.71 269.607 1429.71 269.607L1421.74 263.658L1401.17 276.923L1306.38 392.959C1306.38 392.959 1213.5 433.567 1207.21 432.397C1196.65 430.434 1188.29 417.308 1178.21 420.976C1173.45 422.721 1170.7 427.757 1166.24 430.156C1160.73 433.131 1153.95 431.445 1147.99 429.542C1109.29 417.189 1072.84 397.876 1040.88 372.793C1015.61 397.816 990.371 422.82 965.108 447.843C959.243 453.653 953.001 459.681 945.036 461.862C938.696 463.607 931.959 462.675 925.4 462.278C886.347 459.919 838.714 473.62 813.986 443.303C788.823 467.83 752.048 494.043 722.089 475.662C718.681 481.016 715.273 486.37 711.845 491.723C644.022 445.444 576.219 399.165 508.395 352.866C504.452 358.576 500.489 364.267 496.546 369.978C486.204 355.82 473.344 343.507 458.761 333.791C414.596 373.051 370.411 412.311 326.245 451.571C319.449 457.619 311.741 464.023 302.647 463.884C294.662 463.765 287.648 458.59 279.821 457.024C269.617 454.981 259.314 459.245 249.763 463.408C175.5 495.788 101.238 528.188 26.9747 560.567C264.426 649.695 515.588 697.997 767.741 725.122C904.754 739.855 1043.14 748.44 1180.31 735.314C1293.07 724.527 1404.42 699.048 1510.67 659.709C1555.45 643.132 1601.22 622.689 1630.92 585.293C1659.29 549.562 1666.46 492.735 1643.64 452.007C1633.14 433.269 1612.87 417.506 1596.08 404.856C1576.23 389.885 1537.02 381.518 1521.39 365.199V365.239Z" fill="#25C2E7"/>
<path opacity="0.2" d="M1521.39 365.239C1490.83 333.355 1429.71 269.607 1429.71 269.607L1421.74 263.658L1401.17 276.923L1306.38 392.959C1306.38 392.959 1213.5 433.567 1207.21 432.397C1196.65 430.434 1188.29 417.308 1178.21 420.976C1173.45 422.721 1170.7 427.757 1166.24 430.156C1160.73 433.131 1153.95 431.445 1147.99 429.542C1109.29 417.189 1072.84 397.876 1040.88 372.793C1015.61 397.816 990.371 422.82 965.108 447.843C959.243 453.653 953.001 459.681 945.036 461.862C938.696 463.607 931.959 462.675 925.4 462.278C886.347 459.919 838.714 473.62 813.986 443.303C788.823 467.83 752.048 494.043 722.089 475.662C718.681 481.016 715.273 486.37 711.845 491.723C644.022 445.444 576.219 399.165 508.395 352.866C504.452 358.576 500.489 364.267 496.546 369.978C486.204 355.82 473.344 343.507 458.761 333.791C414.596 373.051 370.411 412.311 326.245 451.571C319.449 457.619 311.741 464.023 302.647 463.884C294.662 463.765 287.648 458.59 279.821 457.024C269.617 454.981 259.314 459.245 249.763 463.408C175.5 495.788 101.238 528.188 26.9747 560.567C264.426 649.695 515.588 697.997 767.741 725.122C904.754 739.855 1043.14 748.44 1180.31 735.314C1293.07 724.527 1404.42 699.048 1510.67 659.709C1555.45 643.132 1601.22 622.689 1630.92 585.293C1659.29 549.562 1666.46 492.735 1643.64 452.007C1633.14 433.269 1612.87 417.506 1596.08 404.856C1576.23 389.885 1537.02 381.518 1521.39 365.199V365.239Z" fill="white"/>
</g>
</g>
<path d="M1117.24 516.101H1118.08V517.801H1118.79V515.391H1116.53V517.801H1117.24V516.101Z" fill="white"/>
<path d="M1120.66 516.101H1121.5V517.801H1122.21V515.391H1119.95V517.801H1120.66V516.101Z" fill="white"/>
<path d="M1124.1 516.101H1124.94V517.801H1125.65V515.391H1123.39V517.801H1124.1V516.101Z" fill="white"/>
<path d="M1127.51 516.101H1128.35V517.801H1129.06V515.391H1126.8V517.801H1127.51V516.101Z" fill="white"/>
<path d="M1130.95 516.101H1131.79V517.801H1132.5V515.391H1130.24V517.801H1130.95V516.101Z" fill="white"/>
<path d="M1158.52 562.691H1147.77V564.13H1157.81V565.251H1159.23V564.13H1179.24V565.251H1180.66V564.13H1190.72V562.691H1179.95H1158.52Z" fill="white"/>
<path d="M1103.15 560.58H1089.36V562H1103.15H1117.77H1125.11V560.58H1117.77H1103.15Z" fill="white"/>
<path d="M1274.15 560.58L1268.36 541.151C1268.36 541.151 1268.49 541.245 1268.57 541.282C1269.15 541.544 1269.74 541.674 1270.36 541.674C1270.85 541.674 1271.35 541.6 1271.82 541.413C1272.88 541.039 1273.74 540.255 1274.22 539.227C1274.69 538.2 1274.75 537.041 1274.35 535.977L1272.88 531.885C1277.34 530.073 1281.75 528 1285.99 525.702L1288.19 529.513C1288.97 530.877 1290.41 531.643 1291.87 531.643C1292.59 531.643 1293.32 531.456 1293.99 531.063C1296.01 529.905 1296.72 527.29 1295.54 525.272L1293.32 521.405C1297.39 518.846 1301.37 516.025 1305.14 513.036L1308.05 516.511C1308.89 517.501 1310.09 518.024 1311.3 518.024C1312.27 518.024 1313.24 517.706 1314.02 517.034C1315.82 515.52 1316.06 512.849 1314.55 511.037L1311.62 507.543C1315.2 504.312 1318.62 500.874 1321.81 497.269L1325.34 500.239C1326.14 500.912 1327.11 501.229 1328.06 501.229C1329.28 501.229 1330.49 500.725 1331.33 499.716C1332.82 497.923 1332.6 495.232 1330.81 493.738L1327.26 490.749C1330.21 486.956 1332.99 482.977 1335.51 478.886L1339.56 481.221C1340.22 481.614 1340.94 481.8 1341.67 481.8C1343.15 481.8 1344.57 481.034 1345.35 479.671C1346.53 477.634 1345.83 475.038 1343.8 473.861L1339.75 471.526C1342.03 467.266 1344.06 462.876 1345.83 458.411L1350.26 460.018C1350.73 460.186 1351.21 460.279 1351.7 460.279C1353.43 460.279 1355.08 459.196 1355.69 457.477C1356.49 455.273 1355.36 452.844 1353.15 452.041L1348.73 450.416C1350.22 445.839 1351.45 441.15 1352.44 436.461L1357.11 437.283C1357.35 437.32 1357.6 437.339 1357.86 437.339C1359.87 437.339 1361.67 435.9 1362.02 433.826C1362.43 431.529 1360.88 429.324 1358.58 428.913L1353.9 428.091C1354.57 423.309 1354.98 418.489 1355.13 413.688H1359.91C1362.26 413.688 1364.17 411.782 1364.17 409.447C1364.17 407.112 1362.26 405.206 1359.91 405.206H1355.13C1354.98 400.405 1354.55 395.567 1353.88 390.803L1358.58 389.981C1360.88 389.57 1362.43 387.366 1362.02 385.068C1361.63 382.751 1359.41 381.201 1357.11 381.612L1352.42 382.434C1351.45 377.745 1350.2 373.056 1348.71 368.479L1353.15 366.853C1355.36 366.05 1356.49 363.622 1355.69 361.417C1354.89 359.213 1352.44 358.073 1350.26 358.876L1345.82 360.483C1344.04 356.037 1342.01 351.628 1339.73 347.387L1343.8 345.034C1345.83 343.857 1346.53 341.26 1345.35 339.224C1344.19 337.206 1341.58 336.496 1339.56 337.673L1335.49 340.008C1332.97 335.917 1330.19 331.938 1327.22 328.164L1330.81 325.156C1331.67 324.428 1332.21 323.4 1332.3 322.279C1332.39 321.14 1332.06 320.038 1331.33 319.178C1329.82 317.385 1327.13 317.142 1325.34 318.655L1321.79 321.644C1318.6 318.039 1315.16 314.601 1311.6 311.37L1314.55 307.857C1316.06 306.045 1315.82 303.374 1314.02 301.861C1313.17 301.132 1312.06 300.777 1310.93 300.889C1309.81 300.983 1308.78 301.524 1308.05 302.384L1305.12 305.877C1301.33 302.888 1297.37 300.086 1293.3 297.527L1295.54 293.622C1296.72 291.605 1296.01 288.989 1293.99 287.812C1291.96 286.654 1289.36 287.345 1288.19 289.381L1285.97 293.23C1281.73 290.932 1277.32 288.858 1272.86 287.046L1274.35 282.918C1275.16 280.713 1274.02 278.285 1271.82 277.481C1270.75 277.089 1269.59 277.145 1268.57 277.612C1267.54 278.098 1266.76 278.957 1266.38 280.022L1264.89 284.095C1260.34 282.581 1255.63 281.292 1250.89 280.284L1251.64 276.062C1251.82 274.941 1251.58 273.82 1250.93 272.886C1250.27 271.952 1249.3 271.335 1248.18 271.148C1245.89 270.737 1243.68 272.269 1243.27 274.586L1242.53 278.77C1237.8 278.079 1232.93 277.631 1228.06 277.463V273.259C1228.06 270.906 1226.15 269 1223.82 269C1221.49 269 1219.56 270.906 1219.56 273.259V277.407C1214.75 277.537 1209.88 277.948 1205.08 278.602L1204.37 274.586C1204.18 273.465 1203.55 272.493 1202.61 271.84C1201.7 271.186 1200.58 270.943 1199.44 271.148C1197.14 271.541 1195.59 273.745 1196.01 276.062L1196.7 280.022C1191.97 280.993 1187.23 282.226 1182.62 283.721L1181.26 280.022C1180.46 277.818 1178.01 276.678 1175.83 277.481C1174.76 277.855 1173.9 278.64 1173.42 279.667C1172.95 280.695 1172.89 281.853 1173.29 282.918L1174.61 286.598C1170.11 288.373 1165.67 290.428 1161.38 292.707L1159.45 289.381C1158.28 287.345 1155.68 286.654 1153.65 287.812C1152.66 288.391 1151.97 289.307 1151.67 290.409C1151.37 291.492 1151.52 292.651 1152.1 293.622L1154 296.929C1149.88 299.488 1145.84 302.29 1142.02 305.279L1139.59 302.384C1138.86 301.524 1137.84 300.983 1136.72 300.889C1135.58 300.777 1134.48 301.132 1133.62 301.861C1131.82 303.374 1131.58 306.064 1133.09 307.857L1135.5 310.716C1131.86 313.948 1128.39 317.422 1125.12 321.028L1122.29 318.655C1120.49 317.142 1117.82 317.385 1116.31 319.178C1115.58 320.038 1115.23 321.14 1115.34 322.279C1115.43 323.4 1115.98 324.428 1116.83 325.156L1119.65 327.51C1116.63 331.34 1113.79 335.357 1111.22 339.485L1108.08 337.673C1106.04 336.496 1103.45 337.187 1102.27 339.224C1101.12 341.26 1101.81 343.857 1103.84 345.034L1106.94 346.827C1104.63 351.105 1102.53 355.57 1100.71 360.091L1097.38 358.876C1095.18 358.073 1092.73 359.213 1091.95 361.417C1091.15 363.622 1092.29 366.05 1094.49 366.853L1097.79 368.068C1096.26 372.701 1094.97 377.465 1093.98 382.228L1090.53 381.612C1089.41 381.406 1088.29 381.668 1087.36 382.322C1086.42 382.976 1085.81 383.947 1085.6 385.068C1085.42 386.17 1085.66 387.31 1086.31 388.244C1086.97 389.159 1087.94 389.794 1089.06 389.981L1092.51 390.598C1091.82 395.417 1091.39 400.331 1091.24 405.206H1087.73C1085.38 405.206 1083.47 407.112 1083.47 409.447C1083.47 411.782 1085.38 413.688 1087.73 413.688H1091.24C1091.39 418.564 1091.82 423.458 1092.51 428.297L1089.06 428.913C1087.94 429.1 1086.97 429.735 1086.31 430.651C1085.66 431.585 1085.42 432.724 1085.6 433.826C1085.81 434.947 1086.42 435.919 1087.36 436.573C1088.09 437.077 1088.93 437.339 1089.78 437.339C1090.03 437.339 1090.29 437.32 1090.53 437.283L1093.97 436.666C1094.97 441.43 1096.24 446.194 1097.77 450.827L1094.49 452.041C1092.29 452.844 1091.15 455.273 1091.95 457.477C1092.57 459.196 1094.21 460.279 1095.95 460.279C1096.41 460.279 1096.92 460.186 1097.38 460.018L1100.69 458.822C1102.52 463.324 1104.61 467.789 1106.92 472.086L1103.84 473.861C1101.81 475.038 1101.12 477.634 1102.27 479.671C1103.06 481.034 1104.5 481.8 1105.97 481.8C1106.68 481.8 1107.41 481.614 1108.08 481.221L1111.2 479.428C1113.77 483.556 1116.61 487.573 1119.62 491.403L1116.83 493.738C1115.4 494.933 1114.95 496.876 1115.64 498.576C1112.28 500.65 1110.26 503.863 1110.26 507.263C1110.26 510.346 1111.89 513.279 1114.73 515.371V517.09H1110.43L1107.46 520.34V517.09H1104.08V516.697C1105.15 515.726 1105.73 514.474 1105.73 513.167C1105.73 510.962 1104.05 508.982 1101.51 508.179C1100.39 507.413 1099.88 505.414 1099.79 504.704L1099.1 499.529L1098.39 504.704C1098.3 505.414 1097.79 507.413 1096.67 508.179C1094.13 508.982 1092.45 510.962 1092.45 513.167C1092.45 514.624 1093.16 515.987 1094.45 516.996V517.09H1090.94V521.816H1080.64V520.807H1085.23V516.249H1080.64V510.607C1083.98 507.749 1085.83 504.05 1085.83 500.164C1085.83 494.448 1081.72 489.198 1075.39 486.583V488.115C1080.88 490.562 1084.41 495.176 1084.41 500.164C1084.41 503.732 1082.65 507.114 1079.46 509.729L1079.2 509.935V516.249H1077.97V511.765H1075.26L1075.22 517.669H1083.79V519.387H1079.2V555.891H1079.91V556.601H1202.52V561.29H1203.23V562H1268.01V561.29L1268.68 561.084C1266.46 553.687 1263.77 544.85 1260.88 535.36L1259.59 531.138C1249.9 499.585 1237.21 459.252 1231.79 446.418C1231.36 445.428 1230.95 444.55 1230.54 443.709C1228.45 439.524 1226.36 436.984 1224.1 435.993C1222.25 435.153 1220.31 435.433 1218.48 436.778C1214.9 439.45 1212.69 445.446 1212.6 445.708L1190.05 509.673V469.452L1214.23 427.549L1223.67 411.166L1248.44 479.297L1262.97 528.018L1263.53 529.886L1264.78 534.108V534.165L1264.67 534.202L1265.41 536.219L1272.94 561.495L1273.63 561.29V562H1385V560.58H1274.15ZM1355.17 406.626H1359.91C1361.48 406.626 1362.73 407.897 1362.73 409.447C1362.73 410.998 1361.48 412.268 1359.91 412.268H1355.17C1355.19 411.334 1355.21 410.4 1355.21 409.466C1355.21 408.532 1355.19 407.56 1355.17 406.626V406.626ZM1091.2 412.268H1087.73C1086.16 412.268 1084.89 410.998 1084.89 409.447C1084.89 407.897 1086.16 406.626 1087.73 406.626H1091.2C1091.18 407.56 1091.17 408.513 1091.17 409.466C1091.17 410.419 1091.17 411.334 1091.2 412.268V412.268ZM1077.26 516.249H1075.78V512.475H1077.26V516.249ZM1294.31 525.982C1295.1 527.327 1294.63 529.064 1293.28 529.849C1291.92 530.615 1290.2 530.167 1289.42 528.803L1287.24 525.011C1288.86 524.114 1290.48 523.161 1292.11 522.152L1294.31 525.982V525.982ZM1313.46 511.952C1314.47 513.148 1314.3 514.941 1313.11 515.95C1311.91 516.94 1310.14 516.791 1309.13 515.595L1306.24 512.139C1307.71 510.962 1309.15 509.748 1310.55 508.496L1313.46 511.952V511.952ZM1329.89 494.821C1331.09 495.83 1331.24 497.605 1330.23 498.801C1329.24 499.996 1327.45 500.146 1326.25 499.155L1322.74 496.204C1324.01 494.765 1325.23 493.308 1326.36 491.87L1329.89 494.821ZM1343.09 475.094C1344.43 475.878 1344.9 477.597 1344.14 478.961C1343.35 480.306 1341.62 480.773 1340.27 479.988L1336.26 477.672C1337.23 476.065 1338.18 474.421 1339.08 472.777L1343.09 475.094V475.094ZM1352.67 453.367C1354.14 453.909 1354.89 455.534 1354.37 456.991C1353.82 458.467 1352.2 459.215 1350.74 458.691L1346.36 457.085C1347.03 455.366 1347.66 453.591 1348.28 451.761L1352.67 453.367ZM1358.34 430.314C1359.87 430.576 1360.9 432.052 1360.62 433.584C1360.36 435.115 1358.88 436.143 1357.35 435.881L1352.72 435.059C1353.08 433.247 1353.4 431.379 1353.69 429.492L1358.34 430.314V430.314ZM1357.35 383.013C1358.88 382.733 1360.36 383.779 1360.62 385.311C1360.9 386.843 1359.87 388.318 1358.34 388.58L1353.68 389.402C1353.4 387.496 1353.06 385.628 1352.7 383.835L1357.35 383.013ZM1350.74 360.203C1352.2 359.68 1353.82 360.427 1354.37 361.903C1354.89 363.36 1354.14 364.985 1352.67 365.527L1348.26 367.134C1347.65 365.303 1347.01 363.528 1346.34 361.809L1350.74 360.203V360.203ZM1340.27 338.906C1340.92 338.532 1341.67 338.42 1342.42 338.626C1343.15 338.813 1343.74 339.28 1344.14 339.933C1344.9 341.279 1344.43 343.016 1343.09 343.801L1339.06 346.136C1338.16 344.492 1337.23 342.848 1336.24 341.222L1340.27 338.906ZM1326.25 319.739C1327.45 318.73 1329.24 318.898 1330.23 320.094C1330.73 320.673 1330.96 321.401 1330.88 322.149C1330.83 322.896 1330.47 323.587 1329.89 324.073L1326.35 327.043C1325.19 325.605 1323.97 324.148 1322.72 322.709L1326.25 319.739V319.739ZM1309.13 303.299C1309.62 302.72 1310.29 302.365 1311.06 302.309C1311.8 302.234 1312.53 302.458 1313.11 302.944C1314.3 303.953 1314.47 305.746 1313.46 306.942L1310.53 310.435C1309.13 309.184 1307.7 307.97 1306.22 306.774L1309.13 303.299ZM1289.42 290.091C1290.2 288.746 1291.92 288.279 1293.28 289.045C1294.63 289.83 1295.1 291.567 1294.31 292.912L1292.09 296.779C1290.45 295.771 1288.82 294.818 1287.22 293.921L1289.42 290.091ZM1267.71 280.508C1267.97 279.798 1268.49 279.219 1269.17 278.901C1269.86 278.584 1270.62 278.546 1271.33 278.808C1272.79 279.35 1273.55 280.975 1273.03 282.432L1271.54 286.505C1269.74 285.795 1267.97 285.141 1266.23 284.543L1267.71 280.508V280.508ZM1244.67 274.829C1244.93 273.297 1246.41 272.269 1247.94 272.531C1248.69 272.662 1249.34 273.091 1249.77 273.708C1250.2 274.324 1250.37 275.071 1250.24 275.819L1249.51 279.985C1247.62 279.611 1245.77 279.275 1243.94 278.976L1244.67 274.829V274.829ZM1221 273.259C1221 271.69 1222.25 270.42 1223.82 270.42C1225.39 270.42 1226.64 271.69 1226.64 273.259V277.407C1224.77 277.369 1222.87 277.351 1221 277.388V273.259V273.259ZM1199.7 272.531C1200.43 272.4 1201.2 272.568 1201.81 273.017C1202.43 273.446 1202.84 274.081 1202.97 274.829L1203.68 278.808C1201.79 279.088 1199.93 279.406 1198.1 279.761L1197.41 275.819C1197.13 274.287 1198.17 272.811 1199.7 272.531V272.531ZM1174.71 280.265C1175.02 279.592 1175.6 279.069 1176.31 278.808C1177.77 278.285 1179.39 279.032 1179.93 280.508L1181.26 284.169C1179.47 284.767 1177.67 285.421 1175.94 286.075L1174.61 282.432C1174.35 281.722 1174.39 280.956 1174.71 280.265V280.265ZM1153.33 292.912C1152.94 292.258 1152.85 291.492 1153.05 290.764C1153.24 290.035 1153.7 289.438 1154.36 289.045C1155.72 288.279 1157.44 288.728 1158.22 290.091L1160.13 293.379C1158.45 294.295 1156.8 295.247 1155.22 296.2L1153.33 292.912V292.912ZM1134.18 306.942C1133.17 305.746 1133.34 303.953 1134.53 302.944C1135.11 302.458 1135.84 302.234 1136.59 302.309C1137.33 302.365 1138.02 302.72 1138.51 303.299L1140.9 306.157C1139.46 307.316 1138 308.53 1136.57 309.782L1134.18 306.942V306.942ZM1117.75 324.073C1117.17 323.587 1116.82 322.896 1116.74 322.149C1116.69 321.401 1116.91 320.673 1117.39 320.094C1118.4 318.898 1120.19 318.73 1121.39 319.739L1124.19 322.093C1122.94 323.494 1121.73 324.932 1120.53 326.408L1117.75 324.073V324.073ZM1104.55 343.801C1103.9 343.427 1103.43 342.81 1103.23 342.082C1103.04 341.353 1103.13 340.587 1103.51 339.933C1103.88 339.28 1104.5 338.813 1105.22 338.626C1105.95 338.42 1106.72 338.532 1107.37 338.906L1110.47 340.681C1109.46 342.343 1108.51 343.969 1107.61 345.575L1104.55 343.801V343.801ZM1094.97 365.527C1093.5 364.985 1092.75 363.36 1093.28 361.903C1093.82 360.427 1095.44 359.68 1096.9 360.203L1100.18 361.398C1099.51 363.155 1098.86 364.929 1098.24 366.723L1094.97 365.527V365.527ZM1089.3 388.58C1088.55 388.449 1087.92 388.038 1087.47 387.422C1087.04 386.805 1086.87 386.058 1087 385.311C1087.13 384.563 1087.56 383.91 1088.18 383.48C1088.8 383.05 1089.54 382.882 1090.29 383.013L1093.7 383.611C1093.33 385.423 1093.01 387.291 1092.72 389.178L1089.3 388.58V388.58ZM1090.29 435.881C1089.54 436.012 1088.8 435.844 1088.18 435.414C1087.56 434.985 1087.13 434.331 1087 433.584C1086.87 432.836 1087.04 432.089 1087.47 431.473C1087.92 430.856 1088.55 430.445 1089.3 430.314L1092.72 429.717C1093.01 431.603 1093.33 433.471 1093.69 435.284L1090.29 435.881ZM1096.9 458.691C1095.44 459.215 1093.82 458.449 1093.28 456.991C1092.75 455.534 1093.5 453.909 1094.97 453.367L1098.22 452.19C1098.84 453.965 1099.47 455.74 1100.16 457.496L1096.9 458.691V458.691ZM1107.37 479.988C1106.03 480.773 1104.29 480.306 1103.51 478.961C1102.74 477.597 1103.19 475.878 1104.55 475.094L1107.59 473.338C1108.49 474.944 1109.44 476.57 1110.43 478.214L1107.37 479.988V479.988ZM1117.75 494.821L1120.51 492.505C1120.9 492.991 1121.31 493.495 1121.71 493.981C1121 495.307 1120.16 496.316 1119.21 496.932C1118.42 497.175 1117.64 497.493 1116.91 497.866C1116.54 496.783 1116.83 495.587 1117.75 494.821V494.821ZM1111.68 507.263C1111.68 504.181 1113.64 501.266 1116.91 499.454C1117.79 498.95 1118.74 498.558 1119.71 498.259L1119.88 498.184C1121.18 497.362 1122.3 496.036 1123.2 494.205C1123.63 493.327 1123.97 492.449 1124.21 491.664C1124.64 492.991 1125.27 494.56 1126.24 495.924C1126.93 496.914 1127.7 497.661 1128.54 498.184L1128.73 498.259C1133.43 499.679 1136.59 503.097 1136.73 506.983V507.263C1136.73 507.712 1136.7 508.179 1136.59 508.72C1136.19 510.663 1135.07 512.457 1133.32 513.876L1133.06 514.101V520.546H1132.87V521.966H1134.03C1133.39 522.339 1132.83 522.788 1132.37 523.292C1131.19 524.506 1130.57 525.945 1130.57 527.477C1130.57 528.784 1131.06 530.036 1131.92 531.119H1115.08V521.966H1115.94V521.256H1116.14V514.642L1115.85 514.437C1113.19 512.587 1111.68 509.991 1111.68 507.263V507.263ZM1142.47 316.656C1143.19 316.656 1143.92 316.47 1144.58 316.096L1184.11 363.248L1184.6 366.685C1184.6 366.685 1184.52 367.694 1182.49 372.495C1182.34 372.869 1182.21 373.205 1182.12 373.541L1130.48 330.2C1130.95 329.434 1131.17 328.556 1131.08 327.66C1130.98 326.539 1130.46 325.511 1129.6 324.783C1132.63 321.42 1135.88 318.207 1139.25 315.199C1140.08 316.152 1141.27 316.656 1142.47 316.656V316.656ZM1140.32 314.246C1141.77 312.976 1143.23 311.762 1144.65 310.622C1145.12 311.201 1145.34 311.93 1145.27 312.659C1145.21 313.406 1144.86 314.097 1144.35 314.527L1144.26 314.601C1143.74 315.031 1143.1 315.237 1142.47 315.237C1141.66 315.237 1140.88 314.9 1140.32 314.246V314.246ZM1178.57 416.733V414.192H1190.8V416.733H1178.57ZM1187.08 418.153V451.667H1182.6V418.153H1187.08ZM1188.63 390.467V391.756H1180.75V390.467H1188.63ZM1184.52 389.047V378.679C1184.82 378.754 1185.07 378.772 1185.18 378.772V389.047H1184.52ZM1215.94 407.392L1187.27 402.33V396.949L1215.94 407.392V407.392ZM1187.27 395.436V393.176H1190.05V390.803L1216.45 406.047L1187.27 395.436V395.436ZM1215.7 408.793H1187.27V403.768L1215.7 408.793ZM1215.7 410.213L1192.22 414.36V412.772H1187.27V410.213H1215.7ZM1192.22 415.799L1215.94 411.614L1188.5 421.609V418.153H1192.22V415.799V415.799ZM1216.43 412.941L1188.5 429.081V423.122L1216.43 412.941ZM1217.16 414.174L1188.5 438.235V430.725L1217.16 414.174ZM1190.05 389.178V389.047H1189.85L1186.6 387.179V379.165L1217.14 404.814L1190.05 389.178V389.178ZM1187.01 389.047H1186.6V388.804L1187.01 389.047ZM1185.85 393.176V412.772H1183.85V393.176H1185.85ZM1182.43 393.176V393.661L1181.07 393.176H1182.43ZM1188.5 440.085L1218.05 415.257L1216.11 417.592L1188.5 450.509V440.085V440.085ZM1187.53 378.1C1187.79 377.857 1188.02 377.558 1188.18 377.203C1189.6 374.083 1186.34 367.152 1185.94 366.368L1184.94 364.219L1218.05 403.731L1187.53 378.1V378.1ZM1185.48 368.796C1186.47 371.281 1187.64 374.961 1186.9 376.605C1186.73 376.979 1186.47 377.184 1186.09 377.296L1186.19 377.651H1186.09L1185.98 377.296H1185.79L1185.87 377.651H1185.76L1185.66 377.334C1185.57 377.352 1185.46 377.371 1185.31 377.352C1185.31 377.352 1184.69 377.352 1184.13 377.072C1183.54 376.755 1183.22 376.232 1183.22 375.447C1183.22 375.297 1183.24 375.129 1183.26 374.943L1182.55 374.849L1183.26 374.924C1183.33 374.363 1183.5 373.747 1183.8 373.056C1184.3 371.86 1184.99 370.179 1185.48 368.796V368.796ZM1129.68 327.772C1129.73 328.538 1129.51 329.266 1129.02 329.845L1129.55 330.294H1129.57L1129.53 330.331L1128.99 329.864C1128 331.041 1126.22 331.191 1125.03 330.2L1124.99 330.163C1126.19 328.687 1127.4 327.249 1128.65 325.848H1128.67C1129.25 326.352 1129.6 327.025 1129.68 327.772V327.772ZM1126.84 332.274C1127.81 332.274 1128.78 331.919 1129.55 331.265L1181.82 375.167C1181.74 376.773 1182.45 377.651 1183.11 378.1V385.161L1118.16 347.63C1118.89 345.706 1118.16 343.483 1116.33 342.437L1116.26 342.399C1118.68 338.551 1121.31 334.815 1124.12 331.265H1124.13C1124.92 331.938 1125.89 332.274 1126.84 332.274V332.274ZM1116.93 345.388C1117.13 346.117 1117.02 346.864 1116.7 347.443L1116.63 347.556L1117.23 347.892L1117.21 347.91L1116.63 347.556C1115.85 348.882 1114.11 349.33 1112.78 348.564L1112.67 348.49C1113.55 346.883 1114.5 345.239 1115.51 343.614L1115.62 343.67C1116.27 344.043 1116.74 344.66 1116.93 345.388V345.388ZM1114.18 350.358C1115.4 350.358 1116.59 349.797 1117.41 348.845L1183.11 386.787V389.047H1179.33V392.54L1109.03 366.928C1109.42 364.911 1108.32 362.856 1106.32 362.127L1106.19 362.09C1107.89 357.868 1109.83 353.72 1111.98 349.741L1112.07 349.797C1112.75 350.171 1113.46 350.358 1114.18 350.358V350.358ZM1107.52 367.115L1108.17 367.339V367.377L1107.52 367.134C1106.96 368.572 1105.35 369.301 1103.92 368.778L1103.73 368.722C1104.33 366.928 1104.98 365.153 1105.67 363.397L1105.84 363.472C1107.31 363.995 1108.06 365.62 1107.52 367.115ZM1104.85 370.366C1106.34 370.366 1107.76 369.581 1108.53 368.273L1182.43 395.175V401.47L1103.39 387.534C1103.43 385.479 1101.99 383.629 1099.9 383.274L1099.73 383.237C1100.67 378.81 1101.84 374.382 1103.26 370.067L1103.43 370.123C1103.9 370.291 1104.38 370.366 1104.85 370.366V370.366ZM1101.94 387.945L1102.63 388.057V388.113L1101.94 387.982C1101.64 389.495 1100.16 390.504 1098.67 390.243L1098.47 390.205C1098.76 388.281 1099.08 386.432 1099.44 384.619L1099.66 384.657C1101.19 384.937 1102.22 386.413 1101.94 387.945V387.945ZM1099.16 391.7C1100.91 391.7 1102.52 390.579 1103.13 388.935L1182.43 402.927V408.793H1101.41C1101.1 406.757 1099.36 405.206 1097.23 405.206H1097.07C1097.23 400.667 1097.63 396.109 1098.26 391.606L1098.43 391.644C1098.67 391.681 1098.91 391.7 1099.16 391.7V391.7ZM1100.78 409.466V409.503H1100.74V409.466H1100.78ZM1100.72 409.466V409.503H1100.28L1100.72 409.466ZM1097.23 406.626C1098.8 406.626 1100.07 407.897 1100.07 409.354V409.485C1100.03 411.016 1098.76 412.268 1097.23 412.268H1097.03C1097.01 411.334 1096.99 410.4 1096.99 409.466C1096.99 408.532 1097.01 407.56 1097.03 406.626H1097.23V406.626ZM1097.23 413.688C1099.31 413.688 1101.04 412.193 1101.4 410.213H1182.43V412.772H1177.15V417.013L1103.17 430.071C1102.89 429.212 1102.35 428.484 1101.6 427.96C1100.67 427.307 1099.55 427.064 1098.43 427.251L1098.26 427.288C1097.63 422.786 1097.21 418.227 1097.07 413.688H1097.23V413.688ZM1098.67 428.652C1100.2 428.39 1101.68 429.418 1101.94 430.856V430.987C1102.2 432.519 1101.17 433.957 1099.66 434.219L1099.44 434.275C1099.08 432.481 1098.75 430.613 1098.47 428.689L1098.67 428.652V428.652ZM1099.9 435.62C1101.94 435.265 1103.37 433.471 1103.39 431.473L1178.87 418.153H1181.18V424.262L1160.98 431.641C1160.55 430.296 1160.01 429.193 1159.99 429.137L1157.98 424.878L1158.63 429.418C1158.63 429.418 1158.56 430.053 1157.42 432.743C1157.4 432.818 1157.36 432.874 1157.34 432.948L1108.58 450.714C1108.15 449.93 1107.5 449.295 1106.68 448.921C1105.63 448.435 1104.5 448.398 1103.43 448.772L1103.26 448.828C1101.84 444.512 1100.65 440.085 1099.72 435.657L1099.9 435.62V435.62ZM1179.63 458.262V461.083L1164.74 478.849H1161.51V462.745L1181.18 446.231V451.667H1175.1V458.262H1179.63ZM1166.88 528.093C1166.38 527.738 1165.93 527.327 1165.56 526.86C1164.89 526.001 1164.53 525.029 1164.53 524.039C1164.53 523.46 1164.66 522.862 1164.92 522.264C1165.69 520.807 1167.24 519.668 1169.2 519.089L1169.37 519.014C1170.65 518.248 1171.46 516.866 1171.94 515.633C1172.45 516.866 1173.25 518.248 1174.54 519.014L1174.71 519.089C1177.58 519.929 1179.52 522.003 1179.52 524.263C1179.52 524.581 1179.45 524.917 1179.39 525.16L1179.63 525.216V531.119H1167.2V528.317L1166.88 528.093V528.093ZM1154.51 481.875V480.287H1163.47V481.875H1154.51ZM1161 483.314V531.119H1157.16V483.314H1161ZM1142.34 521.031C1140.43 519.742 1139.93 516.23 1139.93 516.193V516.118L1142 513.652C1145.1 516.062 1148.33 518.36 1151.63 520.508L1151.15 524.002C1151.09 524.431 1150.79 525.646 1150.16 526.113C1149.15 526.43 1148.35 527.028 1147.84 527.775C1147.84 527.663 1147.86 527.57 1147.86 527.477C1147.86 524.637 1145.64 522.059 1142.34 521.031ZM1147.62 531.119H1146.55C1146.83 530.764 1147.08 530.372 1147.26 529.98C1147.32 530.372 1147.41 530.764 1147.62 531.119ZM1136.34 518.024C1136.98 518.024 1137.61 517.874 1138.21 517.575C1137.87 518.734 1137.24 520.266 1136.1 521.031C1135.52 521.2 1135 521.442 1134.48 521.723V517.575C1135.07 517.874 1135.71 518.024 1136.34 518.024V518.024ZM1134.48 515.894V514.773C1136.03 513.428 1137.07 511.84 1137.65 510.103C1138.15 510.532 1138.66 510.962 1139.16 511.373L1138.62 515.464L1138.51 515.595C1137.5 516.791 1135.73 516.94 1134.53 515.95L1134.48 515.894V515.894ZM1136.6 522.358L1136.77 522.283C1137.99 521.536 1138.75 520.209 1139.22 518.995C1139.68 520.209 1140.45 521.536 1141.66 522.283L1141.83 522.358C1144.59 523.18 1146.44 525.235 1146.44 527.477C1146.44 528.822 1145.77 530.111 1144.58 531.119H1133.88C1133.71 530.989 1133.52 530.839 1133.39 530.69C1132.48 529.756 1132.01 528.635 1132.01 527.477C1132.01 526.318 1132.48 525.216 1133.39 524.263C1134.21 523.404 1135.33 522.75 1136.6 522.358V522.358ZM1139.29 511.467C1139.8 511.915 1140.34 512.345 1140.88 512.756L1139.65 514.213L1139.29 511.467V511.467ZM1150.66 527.439L1150.83 527.364C1151.28 527.084 1151.61 526.692 1151.86 526.262C1151.87 526.3 1151.91 526.356 1151.93 526.393C1152.21 526.804 1152.51 527.14 1152.86 527.364L1153.05 527.439C1154.25 527.794 1155.07 528.672 1155.07 529.625C1155.07 529.924 1154.97 530.241 1154.79 530.54C1154.66 530.764 1154.47 530.951 1154.28 531.119H1149.43C1148.92 530.69 1148.64 530.167 1148.64 529.625C1148.64 528.672 1149.47 527.794 1150.66 527.439V527.439ZM1153.55 526.113C1153.41 526.001 1153.27 525.833 1153.13 525.627C1152.7 524.936 1152.57 524.002 1152.57 524.002L1152.12 520.807C1152.92 521.33 1153.74 521.853 1154.56 522.358C1154.94 522.582 1155.31 522.806 1155.66 523.012L1155.74 523.068V527.589C1155.22 526.935 1154.47 526.412 1153.55 526.113V526.113ZM1155.31 521.144C1154.15 520.434 1152.99 519.705 1151.86 518.958C1148.57 516.809 1145.38 514.53 1142.34 512.102C1140.84 510.943 1139.4 509.748 1138.04 508.571C1138.12 508.104 1138.17 507.674 1138.17 507.263C1138.17 507.189 1138.15 507.114 1138.15 506.927C1138.12 505.956 1137.89 505.021 1137.56 504.125C1137.99 504.517 1138.4 504.909 1138.83 505.283C1140.65 506.89 1142.48 508.44 1144.28 509.841C1147.9 512.7 1151.76 515.408 1155.74 517.893V521.405C1155.59 521.312 1155.46 521.237 1155.31 521.144V521.144ZM1140.3 504.667C1140.79 504.087 1141.46 503.732 1142.2 503.658C1142.97 503.583 1143.7 503.826 1144.2 504.237L1144.3 504.33C1144.95 504.891 1145.28 505.675 1145.28 506.479C1145.28 507.114 1145.06 507.768 1144.63 508.291C1143.19 507.151 1141.76 505.956 1140.3 504.667ZM1145.73 509.169C1147.04 507.581 1146.98 505.302 1145.7 503.77L1155.74 491.795V516.193C1152.29 514.007 1148.92 511.653 1145.73 509.169ZM1144.63 502.836C1143.87 502.387 1142.99 502.163 1142.09 502.238C1140.97 502.35 1139.95 502.873 1139.22 503.732C1135.84 500.706 1132.61 497.493 1129.57 494.13H1129.58C1131.17 492.785 1131.53 490.506 1130.54 488.769L1156.65 466.837V478.849H1153.07V483.314H1155.74V489.591L1144.63 502.836V502.836ZM1128.02 494.541C1128.91 495.55 1129.83 496.521 1130.76 497.512C1130.26 497.306 1129.75 497.101 1129.23 496.932C1128.56 496.503 1127.96 495.905 1127.4 495.102C1126.73 494.149 1126.22 493.065 1125.85 492.057C1126.58 492.897 1127.29 493.738 1128.02 494.541ZM1124.97 488.75L1125.03 488.694C1126.21 487.722 1127.96 487.853 1129.01 489.049L1129.04 489.086C1129.47 489.609 1129.68 490.226 1129.68 490.861C1129.68 491.664 1129.32 492.468 1128.67 493.028L1128.63 493.065C1127.38 491.683 1126.17 490.226 1124.97 488.75V488.75ZM1161 443.653V443.821H1160.78V443.728H1159.36V443.821H1158.78V443.728H1157.36V443.821H1156.97V443.653H1161V443.653ZM1158.43 434.574C1158.43 434.35 1158.46 434.088 1158.58 433.733C1158.61 433.584 1158.67 433.434 1158.73 433.285C1159.02 432.575 1159.27 432.014 1159.45 431.529C1159.58 431.921 1159.71 432.332 1159.83 432.743C1160.31 434.48 1160.05 435.059 1159.96 435.19C1159.94 435.228 1159.9 435.265 1159.85 435.284H1158.86C1158.86 435.284 1158.82 435.284 1158.78 435.284C1158.67 435.228 1158.43 435.097 1158.43 434.592V434.574ZM1159.36 445.241V456.095H1158.78V445.241H1159.36ZM1162.27 457.515V458.43H1155.7V457.515H1162.27ZM1162.76 459.85L1161.51 460.896V459.85H1162.76ZM1158.07 459.85H1160.09V478.849H1158.07V459.85ZM1163.37 525.664C1163.06 525.496 1162.74 525.328 1162.42 525.179V521.779C1162.59 521.872 1162.78 521.984 1162.94 522.078L1163.43 522.32C1163.24 522.9 1163.11 523.46 1163.11 524.039C1163.11 524.618 1163.21 525.123 1163.37 525.664ZM1163.02 520.49C1162.81 520.378 1162.61 520.266 1162.42 520.153V517.034C1163.37 517.893 1163.64 519.331 1163.02 520.49ZM1162.42 526.767C1163.13 527.14 1163.84 527.514 1164.57 527.869C1164.92 528.299 1165.33 528.691 1165.78 529.046V531.119H1162.42V526.767ZM1175.19 517.762C1173.17 516.473 1172.65 512.905 1172.65 512.868L1171.94 507.824L1171.25 512.868C1171.1 513.876 1170.39 516.679 1168.71 517.762C1167.03 518.267 1165.61 519.145 1164.61 520.266C1165.04 518.678 1164.51 516.978 1163.24 515.894L1179.63 487.498V520.695C1178.63 519.387 1177.09 518.323 1175.19 517.762ZM1162.42 514.512V483.837L1162.85 483.314H1164.89V480.885L1179.63 463.287V484.659L1162.42 514.512ZM1163.69 459.065V456.095H1160.78V446.735L1181.18 434.947V444.363L1163.69 459.065ZM1162.42 444.157V442.233H1160.39V436.591C1160.69 436.442 1160.95 436.255 1161.13 435.993C1161.56 435.34 1161.62 434.35 1161.34 433.004L1181.18 425.775V433.303L1162.42 444.157V444.157ZM1108.21 451.611H1108.17L1108.19 451.574V451.611H1108.21ZM1103.94 450.117C1104.63 449.855 1105.41 449.892 1106.08 450.21C1106.77 450.528 1107.3 451.088 1107.54 451.723V451.835L1108.15 451.592V451.63L1107.56 451.835C1108.06 453.293 1107.3 454.899 1105.86 455.422L1105.67 455.497C1104.98 453.741 1104.33 451.966 1103.73 450.191L1103.94 450.117V450.117ZM1106.34 456.767C1108.28 456.057 1109.4 454.04 1109.07 452.06L1157.03 434.592C1157.03 435.452 1157.42 435.975 1157.77 436.274V442.233H1155.57V445.241H1157.38V447.072L1117.51 470.106C1116.22 468.518 1113.92 468.051 1112.09 469.097L1111.98 469.172C1109.83 465.174 1107.89 461.027 1106.19 456.823L1106.34 456.767V456.767ZM1117.3 471.059H1117.26L1117.25 471.04H1117.28L1117.3 471.059ZM1112.8 470.33C1113.46 469.956 1114.22 469.863 1114.95 470.05C1115.68 470.237 1116.29 470.704 1116.63 471.283L1116.67 471.376L1117.21 471.059V471.096L1116.69 471.395C1117.43 472.74 1116.97 474.459 1115.64 475.225L1115.51 475.299C1114.5 473.674 1113.55 472.03 1112.67 470.405L1112.8 470.33V470.33ZM1116.35 476.458C1118.14 475.43 1118.87 473.244 1118.2 471.357L1157.38 448.716V456.095H1154.3V459.85H1156.67V464.987L1129.64 487.666C1128.28 486.489 1126.3 486.303 1124.75 487.199L1124.21 483.5L1123.7 487.125C1121.05 483.725 1118.55 480.156 1116.26 476.514L1116.35 476.458V476.458ZM1093.89 513.167C1093.89 511.579 1095.22 510.103 1097.2 509.505L1097.38 509.43C1098.19 508.926 1098.75 508.085 1099.12 507.282C1099.47 508.085 1100.03 508.926 1100.84 509.43L1101.02 509.505C1103 510.103 1104.33 511.579 1104.33 513.167C1104.33 514.157 1103.84 515.091 1102.95 515.838L1102.68 516.044V517.09H1095.89V516.268L1095.57 516.062C1094.51 515.315 1093.89 514.25 1093.89 513.167V513.167ZM1080.66 555.181V523.236H1092.38V518.509H1106.06V521.909L1103.77 524.431V537.284C1102.29 537.49 1101.02 538.237 1099.92 539.059C1098.61 537.695 1096.64 537.041 1094.77 537.396C1092.9 537.77 1091.3 539.115 1090.61 540.89C1089.13 540.684 1087.56 541.245 1086.57 542.366C1085.64 543.393 1085.25 544.85 1085.49 546.214C1085.25 546.289 1085.01 546.438 1084.8 546.625C1084.02 547.372 1083.72 548.773 1084.09 549.801C1084.52 550.996 1085.49 551.987 1086.74 552.528C1087.71 552.958 1088.78 553.07 1089.75 552.865C1089.93 553.612 1090.06 554.397 1090.2 555.181H1080.64H1080.66ZM1188.65 555.181H1091.6C1091.43 554.004 1091.22 552.846 1090.92 551.762C1090.87 551.576 1090.72 551.407 1090.55 551.314C1090.36 551.221 1090.14 551.221 1089.95 551.295C1089.15 551.65 1088.18 551.613 1087.28 551.221C1086.39 550.828 1085.7 550.137 1085.4 549.315C1085.19 548.755 1085.42 547.989 1085.75 547.653C1085.92 547.503 1086.03 547.522 1086.13 547.559C1086.39 547.671 1086.7 547.615 1086.91 547.41C1087.12 547.204 1087.17 546.905 1087.06 546.625C1086.59 545.56 1086.82 544.178 1087.6 543.3C1088.38 542.422 1089.73 542.048 1090.85 542.384C1091.04 542.44 1091.24 542.422 1091.41 542.328C1091.58 542.235 1091.69 542.067 1091.74 541.88C1092.14 540.367 1093.48 539.096 1095.03 538.798C1096.56 538.499 1098.3 539.171 1099.21 540.441C1099.32 540.61 1099.49 540.703 1099.7 540.722C1099.88 540.759 1100.07 540.703 1100.22 540.591C1101.34 539.732 1102.65 538.816 1104.07 538.667H1104.44C1105.5 538.704 1106.74 539.321 1106.92 540.404C1106.96 540.647 1107.11 540.834 1107.33 540.946C1107.56 541.039 1107.8 541.002 1108 540.871C1108.83 540.329 1109.83 540.049 1110.84 540.105C1111.48 541.151 1111.92 542.291 1112.2 543.468C1112.26 543.692 1112.41 543.879 1112.62 543.972C1112.84 544.066 1113.06 544.047 1113.27 543.916C1114.41 543.244 1116.11 543.58 1116.89 544.663C1117.1 544.962 1117.51 545.037 1117.81 544.869C1118.12 544.682 1118.25 544.29 1118.1 543.954C1117.67 542.945 1117.17 541.095 1118.14 540.61C1118.42 540.46 1118.85 540.46 1119.24 540.46H1123.13L1124.02 542.235C1124.15 542.478 1124.4 542.609 1124.68 542.627C1124.94 542.609 1125.18 542.459 1125.29 542.198C1125.5 541.787 1125.96 541.581 1126.34 541.544C1126.71 541.506 1127.21 541.6 1127.49 541.973C1127.57 542.067 1127.62 542.179 1127.68 542.291C1127.83 542.552 1128 542.851 1128.3 543.094C1128.93 543.655 1129.75 543.636 1130.41 543.617C1130.63 543.617 1130.87 543.617 1131.08 543.617C1131.58 543.673 1132.07 543.991 1132.4 544.495C1132.37 545.224 1132.4 546.009 1132.55 546.868C1132.61 547.167 1132.85 547.391 1133.15 547.447H1133.26C1133.52 547.447 1133.77 547.298 1133.9 547.055C1134.33 546.195 1134.29 545.131 1133.84 544.178C1133.99 542.665 1134.68 542.347 1134.91 542.254C1135.2 542.123 1135.58 542.085 1135.97 542.029C1136.21 542.011 1136.44 541.973 1136.68 541.917C1137.5 541.768 1138.23 541.413 1138.92 541.058C1139.42 540.815 1139.89 540.591 1140.37 540.423C1141.35 540.124 1142.58 540.311 1142.88 541.077C1142.95 541.282 1143.12 541.45 1143.34 541.506C1143.55 541.581 1143.79 541.525 1143.96 541.394C1145.47 540.236 1146.82 539.638 1148.08 539.563C1149.34 539.47 1150.94 540.068 1151.48 541.376C1151.59 541.618 1151.82 541.787 1152.1 541.805C1152.36 541.843 1152.6 541.693 1152.75 541.469C1153.18 540.759 1154 540.273 1154.94 540.143C1155.87 540.03 1156.8 540.292 1157.4 540.852C1157.64 541.077 1158 541.114 1158.28 540.927C1159.88 539.918 1161.4 539.433 1162.8 539.489C1164.4 539.545 1165.86 540.423 1166.4 541.674C1166.53 541.973 1166.81 542.142 1167.13 542.104C1168.23 541.973 1169.35 541.917 1170.26 542.366C1170.99 542.739 1171.61 543.655 1171.29 544.402C1171.2 544.645 1171.23 544.925 1171.4 545.131C1171.57 545.336 1171.81 545.429 1172.09 545.373C1173.47 545.112 1175.04 544.813 1176.42 545.187C1177.62 545.523 1178.77 546.588 1178.66 547.821C1178.64 548.026 1178.72 548.25 1178.89 548.4C1179.02 548.512 1179.19 548.587 1179.37 548.587C1179.41 548.587 1179.43 548.587 1179.47 548.568C1179.78 548.531 1180.12 548.493 1180.44 548.437C1181.46 548.325 1182.68 548.25 1183.76 548.624C1184.88 549.016 1185.96 550.175 1185.76 551.351C1185.72 551.632 1185.83 551.912 1186.07 552.08C1186.3 552.229 1186.62 552.229 1186.84 552.08C1187.4 551.725 1188.13 551.949 1188.63 552.379V555.162L1188.65 555.181ZM1190.07 555.181V554.751C1190.07 554.751 1190.22 554.751 1190.27 554.714C1190.87 554.397 1191.64 554.695 1192.18 555.181H1190.07ZM1195.05 555.181H1193.9C1193.82 555.032 1193.75 554.845 1193.63 554.695C1193 553.799 1191.84 553.126 1190.7 553.164C1190.61 552.603 1190.33 552.061 1189.88 551.594C1189.21 550.866 1188.18 550.38 1187.18 550.511C1186.9 549.035 1185.63 547.783 1184.24 547.298C1182.88 546.831 1181.48 546.905 1180.29 547.055C1180.21 547.055 1180.14 547.073 1180.04 547.073C1179.76 545.467 1178.29 544.252 1176.83 543.841C1175.47 543.468 1174.11 543.599 1172.82 543.823C1172.75 542.665 1171.91 541.6 1170.9 541.114C1169.83 540.572 1168.64 540.554 1167.48 540.666C1166.58 539.171 1164.81 538.162 1162.87 538.088C1161.32 538.032 1159.66 538.499 1157.96 539.489C1157.08 538.854 1155.94 538.592 1154.77 538.76C1153.8 538.891 1152.92 539.283 1152.25 539.9C1151.31 538.741 1149.69 538.069 1148.01 538.162C1146.65 538.256 1145.25 538.798 1143.74 539.825C1142.88 538.872 1141.27 538.667 1139.96 539.096C1139.37 539.283 1138.83 539.545 1138.3 539.806C1137.67 540.124 1137.05 540.423 1136.42 540.554C1136.23 540.591 1136.03 540.61 1135.82 540.647C1135.37 540.684 1134.85 540.759 1134.36 540.965C1133.58 541.32 1133.06 541.955 1132.74 542.814C1132.29 542.496 1131.79 542.272 1131.25 542.216C1130.97 542.179 1130.67 542.198 1130.39 542.198C1129.9 542.216 1129.47 542.216 1129.25 542.029C1129.14 541.936 1129.04 541.768 1128.93 541.581C1128.86 541.432 1128.76 541.282 1128.65 541.133C1128.13 540.423 1127.18 540.03 1126.21 540.143C1125.68 540.199 1125.22 540.367 1124.82 540.647L1124.21 539.451C1124.1 539.209 1123.84 539.059 1123.57 539.059H1119.26C1118.76 539.04 1118.12 539.04 1117.53 539.339C1116.35 539.918 1116.05 541.133 1116.22 542.44C1115.32 542.104 1114.31 542.048 1113.4 542.328C1113.04 541.17 1112.54 540.068 1111.89 539.04C1111.78 538.872 1111.59 538.741 1111.36 538.723C1110.24 538.573 1109.07 538.779 1108.02 539.246C1107.46 538.2 1106.34 537.565 1105.19 537.359V524.973L1107.3 522.657L1111.08 518.509H1113.68V532.539H1175.1L1175.25 532.595V532.539H1175.69L1175.99 532.651L1176.03 532.539H1183.14V519.967H1198.54V523.385H1195.03V555.181H1195.05ZM1181.07 531.119V458.262H1188.65V518.547H1181.74V531.119H1181.07ZM1196.47 538.872C1196.47 538.872 1196.64 538.891 1196.71 538.91L1196.47 540.311V538.872ZM1259.74 536.444C1262.44 545.299 1264.95 553.556 1267.07 560.58H1203.96V555.181H1196.47V545.542C1196.55 545.71 1196.62 545.859 1196.73 546.009C1197.37 546.943 1198.36 547.559 1199.46 547.746C1199.72 547.802 1199.96 547.821 1200.22 547.821C1201.08 547.821 1201.92 547.559 1202.63 547.055C1203.57 546.401 1204.2 545.429 1204.39 544.309L1205.08 540.329C1209.88 541.002 1214.75 541.394 1219.58 541.525V545.635C1219.58 547.989 1221.49 549.894 1223.84 549.894C1226.19 549.894 1228.08 547.989 1228.08 545.635V541.488C1232.97 541.301 1237.82 540.871 1242.56 540.161L1243.29 544.309C1243.48 545.429 1244.11 546.401 1245.03 547.055C1245.76 547.559 1246.6 547.821 1247.45 547.821C1247.72 547.821 1247.96 547.802 1248.2 547.746C1249.32 547.559 1250.29 546.943 1250.95 546.009C1251.6 545.074 1251.84 543.954 1251.65 542.833L1250.91 538.648C1253.84 538.032 1256.79 537.284 1259.74 536.444V536.444ZM1197.42 543.076L1198.11 539.19C1199.94 539.545 1201.79 539.862 1203.68 540.143L1202.99 544.066C1202.86 544.813 1202.45 545.448 1201.83 545.878C1201.21 546.326 1200.45 546.476 1199.72 546.364C1198.97 546.214 1198.32 545.803 1197.89 545.187C1197.46 544.57 1197.29 543.823 1197.42 543.076V543.076ZM1221.02 545.635V541.562C1221.75 541.581 1222.48 541.581 1223.2 541.581C1224.36 541.581 1225.52 541.562 1226.66 541.525V545.635C1226.66 547.204 1225.39 548.475 1223.84 548.475C1222.29 548.475 1221.02 547.204 1221.02 545.635V545.635ZM1243.96 539.956C1245.79 539.657 1247.64 539.321 1249.53 538.947L1250.25 543.076C1250.39 543.823 1250.22 544.57 1249.79 545.187C1249.36 545.803 1248.71 546.214 1247.96 546.364C1247.21 546.476 1246.46 546.326 1245.85 545.878C1245.23 545.448 1244.82 544.813 1244.69 544.066L1243.96 539.956V539.956ZM1259.33 535.08C1256.19 535.977 1253.05 536.78 1249.96 537.415C1247.6 537.901 1245.29 538.33 1243.03 538.667C1237.92 539.451 1232.63 539.937 1227.35 540.087C1225.02 540.161 1222.66 540.18 1220.31 540.124C1215.08 540.012 1209.8 539.582 1204.61 538.835C1202.26 538.517 1199.93 538.106 1197.67 537.658C1197.27 537.583 1196.86 537.49 1196.47 537.415V534.351C1197.03 534.482 1197.59 534.594 1198.15 534.706C1200.45 535.173 1202.8 535.566 1205.17 535.902C1210.17 536.612 1215.25 537.023 1220.29 537.135C1221.26 537.154 1222.23 537.172 1223.2 537.172C1224.6 537.172 1226 537.172 1227.4 537.097C1232.48 536.929 1237.56 536.481 1242.49 535.734C1244.77 535.379 1247.12 534.949 1249.47 534.463C1252.48 533.828 1255.48 533.081 1258.45 532.222L1259.33 535.08V535.08ZM1199.14 533.455C1199.52 532.091 1200.84 531.213 1202.35 531.4C1203.73 531.643 1204.67 532.857 1204.67 534.202V534.389C1202.8 534.108 1200.95 533.791 1199.14 533.455ZM1242.99 534.202C1242.99 532.876 1243.94 531.68 1245.29 531.418H1245.42C1246.74 531.213 1248 531.979 1248.46 533.212C1246.61 533.585 1244.78 533.922 1242.99 534.202V534.202ZM1258.02 530.858C1255.33 531.643 1252.59 532.334 1249.84 532.913C1249.28 531.119 1247.59 529.905 1245.77 529.961L1231.68 449.911C1237.54 465.006 1249.02 501.547 1258.02 530.858ZM1224.55 437.88C1226.12 439.02 1227.68 441.15 1229.23 444.269L1244.39 530.204C1242.64 530.839 1241.5 532.539 1241.59 534.407C1237.15 535.061 1232.61 535.472 1228.04 535.64C1227.83 533.754 1226.4 532.259 1224.55 531.941V437.88ZM1226.62 535.696C1224.77 535.734 1222.91 535.752 1221.06 535.715C1221.24 534.351 1222.42 533.286 1223.84 533.286C1225.26 533.286 1226.42 534.333 1226.62 535.696V535.696ZM1219.58 437.787C1220.78 436.965 1221.94 436.778 1223.13 437.17V531.941C1221.26 532.259 1219.83 533.791 1219.64 535.696C1215.12 535.566 1210.57 535.192 1206.07 534.576C1206.24 532.651 1205.1 530.858 1203.29 530.204L1204.78 521.741L1219.58 437.787ZM1213.96 446.194C1213.96 446.194 1215.48 442.084 1217.87 439.337L1203.38 521.498L1201.89 529.961C1199.94 529.924 1198.23 531.25 1197.76 533.174C1197.33 533.081 1196.9 532.988 1196.47 532.894V524.805H1199.98V518.547H1190.07V513.951L1213.96 446.194V446.194ZM1176.53 456.842V453.106H1187.88L1187.85 452.433H1187.88V453.106H1192.89V456.842H1176.53ZM1213.01 426.84L1190.07 466.612V458.262H1194.31V451.667H1189.4L1217.21 418.508L1219.17 416.172L1213.01 426.84ZM1145.66 315.181C1146.24 314.508 1146.61 313.686 1146.68 312.789C1146.78 311.687 1146.44 310.604 1145.75 309.763C1149.34 306.979 1153.09 304.364 1156.93 301.973C1157.74 303.262 1159.12 303.99 1160.54 303.99C1161.02 303.99 1161.51 303.878 1161.97 303.71L1219.15 402.815L1145.66 315.181ZM1162.31 302.795H1162.27L1161.92 302.197C1160.61 302.963 1158.93 302.515 1158.15 301.244C1159.71 300.291 1161.36 299.357 1163.02 298.442C1163.73 299.787 1163.26 301.431 1161.96 302.197L1162.31 302.795V302.795ZM1163.21 303.019C1164.76 301.767 1165.22 299.582 1164.27 297.769C1168.28 295.658 1172.43 293.734 1176.63 292.072C1177.3 293.678 1178.87 294.668 1180.53 294.668C1180.77 294.668 1181.03 294.65 1181.28 294.594L1220.39 402.124L1163.21 303.019V303.019ZM1181.74 293.734H1181.72L1181.48 293.08C1180.08 293.585 1178.55 292.894 1177.95 291.549C1179.65 290.895 1181.43 290.259 1183.24 289.662C1183.63 291.063 1182.88 292.576 1181.52 293.062L1181.74 293.734V293.734ZM1182.6 294.108C1184.3 293.155 1185.14 291.138 1184.58 289.213C1188.89 287.831 1193.32 286.673 1197.74 285.776C1198.23 287.644 1199.93 288.952 1201.83 288.952H1201.85L1221.71 401.62L1182.6 294.108V294.108ZM1199.14 285.496C1200.93 285.141 1202.78 284.823 1204.65 284.562C1204.69 285.178 1204.52 285.795 1204.16 286.318C1203.72 286.934 1203.08 287.364 1202.33 287.495C1200.9 287.737 1199.53 286.859 1199.14 285.496ZM1223.11 401.377L1203.25 288.69C1204.09 288.41 1204.8 287.868 1205.32 287.14C1205.9 286.318 1206.12 285.346 1206.05 284.356C1210.55 283.74 1215.1 283.366 1219.62 283.254C1219.83 285.141 1221.26 286.635 1223.11 286.953V401.377ZM1221.04 283.217C1222.89 283.179 1224.75 283.198 1226.6 283.254C1226.38 284.58 1225.22 285.608 1223.82 285.608C1222.42 285.608 1221.24 284.562 1221.04 283.217V283.217ZM1224.53 286.953C1226.36 286.635 1227.78 285.159 1228.02 283.291C1232.58 283.459 1237.13 283.87 1241.57 284.524C1241.5 286.392 1242.64 288.074 1244.39 288.69L1224.53 401.377V286.953V286.953ZM1242.97 284.748C1244.78 285.029 1246.6 285.365 1248.43 285.72C1247.96 286.953 1246.65 287.719 1245.31 287.495C1243.94 287.252 1242.99 286.075 1242.97 284.748V284.748ZM1245.77 288.952H1245.79C1247.62 288.952 1249.25 287.756 1249.83 286.019C1254.27 286.972 1258.69 288.186 1262.95 289.587C1262.78 290.484 1262.87 291.38 1263.27 292.221C1263.64 293.024 1264.26 293.678 1265.04 294.108L1225.93 401.62L1245.77 288.952V288.952ZM1284.44 303.019L1227.26 402.105L1266.37 294.594C1266.61 294.65 1266.85 294.668 1267.09 294.668C1268.61 294.668 1270.04 293.846 1270.81 292.501C1275.01 294.22 1279.13 296.182 1283.13 298.33C1282.53 299.974 1283.04 301.842 1284.44 303.019ZM1301.98 315.181L1228.49 402.815L1285.67 303.71C1286.15 303.878 1286.64 304.009 1287.12 304.009C1288.32 304.009 1289.46 303.467 1290.28 302.515C1294.12 304.943 1297.88 307.596 1301.46 310.417C1300.62 311.967 1300.83 313.835 1301.98 315.181V315.181ZM1302.6 311.332C1303.98 312.453 1305.34 313.611 1306.67 314.788C1305.66 315.423 1304.34 315.386 1303.38 314.601L1302.94 315.125L1303.36 314.583C1302.39 313.761 1302.11 312.453 1302.6 311.332V311.332ZM1303.07 316.096C1303.72 316.47 1304.45 316.656 1305.18 316.656C1306.09 316.656 1306.99 316.339 1307.75 315.76C1311.13 318.823 1314.38 322.074 1317.4 325.493C1316.38 326.856 1316.28 328.725 1317.16 330.2L1229.57 403.731L1303.07 316.096ZM1318.37 326.595C1319.57 327.959 1320.69 329.304 1321.77 330.649C1320.69 331.06 1319.42 330.78 1318.64 329.864L1318.11 330.313L1318.09 330.331V330.294L1318.62 329.845C1317.83 328.911 1317.78 327.604 1318.37 326.595V326.595ZM1318.08 331.265C1318.86 331.919 1319.81 332.255 1320.78 332.255C1321.44 332.255 1322.09 332.106 1322.69 331.807C1325.49 335.394 1328.12 339.186 1330.53 343.053C1329.29 344.249 1328.88 346.061 1329.48 347.63L1230.49 404.833L1318.08 331.265V331.265ZM1331.29 344.324C1332.19 345.818 1333.07 347.35 1333.91 348.882C1332.79 349.069 1331.63 348.583 1331.01 347.556L1330.41 347.91L1330.99 347.518C1330.4 346.491 1330.55 345.202 1331.29 344.324V344.324ZM1330.4 471.077L1330.99 471.357C1331.59 470.33 1332.79 469.826 1333.92 470.031C1333.08 471.582 1332.21 473.095 1331.31 474.608C1330.55 473.73 1330.38 472.46 1330.97 471.395L1330.4 471.077V471.077ZM1318.11 488.675L1318.62 489.049C1319.4 488.115 1320.69 487.835 1321.79 488.264C1320.73 489.609 1319.59 490.973 1318.39 492.337C1317.78 491.328 1317.83 490.02 1318.6 489.086L1318.11 488.675V488.675ZM1318.02 487.666L1230.54 414.211L1329.44 471.357C1328.9 472.927 1329.33 474.701 1330.55 475.86C1328.14 479.745 1325.51 483.519 1322.7 487.106C1321.19 486.321 1319.34 486.546 1318.02 487.666V487.666ZM1302.92 503.826H1302.94L1303.36 504.312C1304.34 503.508 1305.68 503.452 1306.71 504.125C1305.36 505.302 1304 506.46 1302.6 507.599C1302.11 506.479 1302.39 505.152 1303.35 504.33L1302.92 503.826V503.826ZM1303.03 502.854L1231.46 417.518L1229.59 415.276L1317.1 488.769C1316.26 490.244 1316.4 492.075 1317.42 493.439C1314.4 496.839 1311.15 500.108 1307.79 503.153C1306.43 502.088 1304.58 501.958 1303.03 502.854V502.854ZM1301.46 508.496C1297.91 511.317 1294.18 513.97 1290.33 516.398C1289.18 515.035 1287.27 514.549 1285.61 515.184L1233.9 425.551L1228.49 416.172L1230.37 418.414L1301.93 503.77C1300.81 505.096 1300.64 506.983 1301.46 508.496ZM1285.35 516.137H1285.37L1285.69 516.697C1286.83 516.044 1288.23 516.268 1289.1 517.164C1287.52 518.136 1285.95 519.051 1284.4 519.911C1284.06 518.715 1284.55 517.37 1285.67 516.716L1285.35 516.137V516.137ZM1330.15 470.125L1231.19 412.941L1338.59 452.06C1338.31 453.704 1339.02 455.347 1340.42 456.282C1338.74 460.485 1336.8 464.67 1334.63 468.723C1333.01 468.256 1331.25 468.779 1330.15 470.125ZM1340.1 451.835L1339.47 451.611L1340.1 451.798C1340.51 450.677 1341.58 449.967 1342.74 449.967C1342.16 451.667 1341.56 453.311 1340.94 454.899C1340.07 454.171 1339.71 452.975 1340.1 451.835V451.835ZM1339.08 450.714L1231.68 411.614L1344.25 431.473C1344.25 433.117 1345.22 434.611 1346.73 435.284C1345.8 439.748 1344.62 444.195 1343.2 448.566C1341.52 448.379 1339.94 449.201 1339.08 450.714V450.714ZM1345.69 430.987L1345.01 430.893L1345.69 430.95C1345.89 429.791 1346.79 428.932 1347.91 428.708C1347.65 430.464 1347.35 432.164 1347.01 433.826C1346.06 433.247 1345.5 432.145 1345.69 430.987ZM1344.47 430.071L1231.94 410.213H1346.23C1346.53 411.82 1347.72 413.109 1349.31 413.52C1349.16 418.078 1348.77 422.674 1348.13 427.232C1346.43 427.344 1345.03 428.446 1344.47 430.071ZM1346.86 409.503V409.466H1346.88V409.503H1346.86ZM1347.57 409.485H1346.92V409.466H1347.57C1347.57 408.27 1348.3 407.28 1349.34 406.85C1349.36 407.728 1349.38 408.588 1349.38 409.466C1349.38 410.344 1349.36 411.185 1349.34 412.044C1348.32 411.633 1347.59 410.643 1347.57 409.485V409.485ZM1346.23 408.793H1231.94L1344.51 388.935C1345.07 390.467 1346.49 391.513 1348.11 391.644C1348.77 396.183 1349.16 400.798 1349.31 405.375C1347.7 405.786 1346.53 407.093 1346.23 408.793ZM1344.99 388.094H1345.01H1345.03H1344.99V388.094ZM1345.7 387.963L1345.05 388.094V388.057L1345.69 387.926C1345.48 386.749 1346.04 385.628 1347.01 385.049C1347.33 386.712 1347.63 388.431 1347.91 390.168C1346.81 389.944 1345.93 389.103 1345.7 387.963ZM1344.27 387.515L1231.68 407.374L1339.1 368.255C1339.86 369.544 1341.26 370.347 1342.75 370.347C1342.89 370.347 1343.03 370.291 1343.18 370.291C1344.6 374.662 1345.8 379.127 1346.71 383.592C1345.2 384.283 1344.25 385.778 1344.27 387.515V387.515ZM1340.12 367.115L1339.49 367.358V367.32L1340.1 367.078C1339.69 365.938 1340.05 364.724 1340.94 363.976C1341.54 365.564 1342.14 367.208 1342.72 368.908C1341.58 368.89 1340.55 368.217 1340.12 367.115ZM1338.61 366.909L1231.19 406.028L1330.23 348.826C1331.05 349.779 1332.21 350.339 1333.42 350.339C1333.81 350.339 1334.2 350.264 1334.62 350.134C1336.76 354.206 1338.72 358.391 1340.4 362.613C1338.98 363.547 1338.29 365.228 1338.61 366.909V366.909ZM1285.71 302.178L1285.37 302.795H1285.35L1285.69 302.178C1284.57 301.524 1284.08 300.217 1284.4 299.002C1285.93 299.862 1287.5 300.777 1289.07 301.749C1288.19 302.608 1286.84 302.832 1285.71 302.178ZM1266.16 293.062L1265.92 293.734H1265.9L1266.14 293.062C1265.43 292.8 1264.87 292.277 1264.55 291.586C1264.31 291.1 1264.24 290.558 1264.31 290.035C1265.99 290.614 1267.73 291.268 1269.46 291.941C1268.77 293.006 1267.41 293.51 1266.16 293.062V293.062ZM1227.26 416.864L1232.67 426.242L1284.38 515.875C1283.02 517.034 1282.51 518.939 1283.13 520.583C1279.15 522.731 1275.03 524.693 1270.83 526.412C1270.38 525.627 1269.73 524.992 1268.9 524.6C1268.08 524.226 1267.17 524.133 1266.33 524.282L1249.79 478.83L1227.26 416.864V416.864ZM1263.81 525.833L1256.66 501.827L1265 524.805C1264.54 525.067 1264.12 525.403 1263.81 525.833V525.833ZM1264.67 528.747L1264.39 527.813C1264.61 526.879 1265.24 526.131 1266.14 525.814L1265.9 525.179H1265.94L1266.14 525.795C1266.85 525.534 1267.62 525.571 1268.31 525.889C1268.79 526.113 1269.18 526.486 1269.48 526.953C1267.88 527.589 1266.25 528.186 1264.67 528.747V528.747ZM1265.08 530.111C1266.94 529.457 1268.83 528.747 1270.73 528C1275.4 526.113 1280.01 523.927 1284.4 521.536C1286.4 520.434 1288.45 519.219 1290.52 517.93C1294.8 515.278 1298.94 512.345 1302.86 509.206C1304.71 507.73 1306.52 506.18 1308.27 504.629C1312.01 501.285 1315.57 497.661 1318.92 493.887C1320.5 492.075 1322.03 490.244 1323.45 488.47C1326.55 484.528 1329.44 480.362 1332.08 476.065C1333.29 474.066 1334.48 472.011 1335.6 469.938C1337.99 465.473 1340.14 460.859 1341.97 456.226C1342.79 454.115 1343.59 451.873 1344.36 449.575C1345.95 444.774 1347.25 439.861 1348.24 434.966C1348.69 432.743 1349.1 430.408 1349.46 428.017C1350.18 423.029 1350.61 417.947 1350.74 412.941C1350.78 411.782 1350.8 410.624 1350.8 409.447C1350.8 408.27 1350.78 407.093 1350.74 405.898C1350.61 400.891 1350.17 395.828 1349.44 390.84C1349.1 388.468 1348.69 386.133 1348.24 383.891C1347.25 378.996 1345.93 374.083 1344.34 369.282C1343.58 366.966 1342.77 364.742 1341.95 362.65C1340.12 357.998 1337.98 353.384 1335.59 348.938C1334.47 346.883 1333.29 344.809 1332.06 342.81C1329.44 338.532 1326.53 334.348 1323.41 330.406C1322.01 328.631 1320.48 326.8 1318.88 324.988C1315.56 321.215 1311.97 317.609 1308.24 314.265C1306.5 312.696 1304.67 311.164 1302.84 309.688C1298.92 306.55 1294.76 303.598 1290.5 300.945C1288.45 299.675 1286.4 298.461 1284.38 297.358C1279.97 294.949 1275.38 292.781 1270.71 290.913C1268.46 289.998 1266.22 289.176 1264.05 288.429C1259.31 286.841 1254.4 285.496 1249.45 284.468C1247.12 283.964 1244.75 283.553 1242.45 283.198C1237.52 282.451 1232.45 281.984 1227.39 281.815C1225.02 281.741 1222.63 281.722 1220.27 281.778C1215.25 281.89 1210.17 282.32 1205.15 283.011C1202.78 283.366 1200.41 283.758 1198.15 284.207C1193.21 285.197 1188.28 286.486 1183.46 288.055C1181.15 288.821 1178.91 289.624 1176.78 290.465C1172.07 292.296 1167.44 294.444 1162.96 296.835C1160.85 297.975 1158.78 299.171 1156.8 300.366C1152.47 303 1148.27 305.933 1144.31 309.053C1142.52 310.473 1140.69 312.005 1138.84 313.611C1135.04 316.974 1131.41 320.579 1128.04 324.353C1126.47 326.109 1124.94 327.94 1123.44 329.789C1120.29 333.75 1117.34 337.935 1114.67 342.25C1113.38 344.305 1112.19 346.379 1111.08 348.396H1111.07C1108.66 352.842 1106.47 357.494 1104.59 362.22C1103.71 364.406 1102.89 366.648 1102.14 368.89C1100.54 373.728 1099.19 378.697 1098.19 383.648C1097.72 385.89 1097.31 388.244 1096.95 390.654C1096.21 395.679 1095.76 400.798 1095.63 405.879C1095.59 407.056 1095.57 408.252 1095.57 409.447C1095.57 410.643 1095.59 411.82 1095.63 412.978C1095.76 418.059 1096.21 423.178 1096.93 428.203C1097.31 430.632 1097.72 432.986 1098.17 435.209C1099.19 440.178 1100.52 445.129 1102.12 449.967C1102.89 452.209 1103.71 454.469 1104.57 456.655C1106.46 461.382 1108.64 466.033 1111.05 470.479C1112.17 472.497 1113.36 474.571 1114.63 476.626C1117.3 480.922 1120.25 485.107 1123.41 489.067C1123.28 489.759 1122.96 491.104 1122.38 492.542C1121.97 492.038 1121.56 491.533 1121.17 491.029C1117.86 486.919 1114.8 482.566 1112.02 478.083C1110.77 476.047 1109.57 473.992 1108.49 471.993C1105.95 467.36 1103.69 462.521 1101.75 457.627C1100.89 455.46 1100.07 453.236 1099.34 451.032H1099.32C1097.64 446.007 1096.26 440.851 1095.22 435.695C1094.77 433.472 1094.36 431.136 1094 428.764C1093.24 423.533 1092.77 418.209 1092.62 412.941C1092.6 411.782 1092.58 410.624 1092.58 409.447C1092.58 408.27 1092.6 407.093 1092.62 405.916C1092.77 400.63 1093.24 395.305 1094 390.093C1094.36 387.739 1094.77 385.404 1095.22 383.162C1096.28 378.006 1097.66 372.85 1099.34 367.844C1100.09 365.602 1100.91 363.379 1101.77 361.23C1103.71 356.336 1105.97 351.497 1108.51 346.864C1109.59 344.884 1110.79 342.848 1112.06 340.793C1114.82 336.309 1117.9 331.956 1121.18 327.847C1122.64 325.997 1124.17 324.204 1125.72 322.466C1129.23 318.525 1133 314.77 1136.96 311.313C1138.75 309.726 1140.56 308.194 1142.35 306.793C1146.48 303.542 1150.85 300.497 1155.33 297.751C1157.27 296.574 1159.32 295.397 1161.43 294.257C1166.06 291.773 1170.9 289.55 1175.77 287.644C1177.92 286.803 1180.16 286 1182.4 285.272C1187.4 283.628 1192.53 282.283 1197.67 281.255C1199.93 280.807 1202.26 280.414 1204.59 280.078C1209.78 279.331 1215.07 278.901 1220.29 278.789C1222.64 278.733 1225 278.752 1227.33 278.826C1232.61 278.995 1237.88 279.48 1243.01 280.246C1245.27 280.601 1247.6 281.012 1249.94 281.498C1255.07 282.581 1260.17 283.964 1265.1 285.626C1267.24 286.355 1269.46 287.177 1271.7 288.074C1276.54 290.017 1281.32 292.277 1285.89 294.78C1287.89 295.883 1289.94 297.078 1291.96 298.33C1296.38 301.076 1300.7 304.14 1304.77 307.409C1306.61 308.866 1308.41 310.398 1310.14 311.949C1314.02 315.423 1317.74 319.16 1321.19 323.064C1322.76 324.858 1324.27 326.688 1325.69 328.463C1328.92 332.554 1331.95 336.888 1334.65 341.316C1335.88 343.333 1337.06 345.388 1338.16 347.425C1340.64 352.02 1342.87 356.803 1344.77 361.623C1345.59 363.752 1346.39 365.975 1347.16 368.255C1348.8 373.205 1350.15 378.286 1351.19 383.387C1351.64 385.61 1352.03 387.945 1352.39 390.317C1353.15 395.473 1353.6 400.723 1353.73 405.916C1353.77 407.093 1353.79 408.27 1353.79 409.447C1353.79 410.624 1353.77 411.782 1353.73 412.941C1353.6 418.134 1353.15 423.384 1352.39 428.54C1352.05 430.912 1351.64 433.247 1351.19 435.489C1350.17 440.57 1348.8 445.652 1347.16 450.621C1346.41 452.9 1345.61 455.123 1344.79 457.234C1342.89 462.073 1340.66 466.855 1338.18 471.451C1337.08 473.487 1335.9 475.542 1334.67 477.541C1331.96 481.987 1328.96 486.303 1325.71 490.413C1324.31 492.187 1322.8 493.999 1321.21 495.812C1317.78 499.716 1314.06 503.452 1310.16 506.927C1308.42 508.496 1306.61 510.028 1304.8 511.485C1300.73 514.754 1296.42 517.8 1292 520.546C1289.96 521.797 1287.93 522.993 1285.91 524.114C1281.34 526.617 1276.56 528.878 1271.7 530.821C1269.76 531.605 1267.82 532.315 1265.94 532.969L1265.08 530.111V530.111ZM1267.71 538.368L1266.76 535.771L1266.35 534.333C1268.05 533.754 1269.8 533.1 1271.55 532.408L1273.03 536.444C1273.27 537.154 1273.25 537.92 1272.92 538.611C1272.6 539.283 1272.04 539.806 1271.33 540.068C1270.62 540.329 1269.86 540.292 1269.17 539.974C1268.49 539.657 1267.97 539.078 1267.71 538.368V538.368Z" fill="white"/>
<path d="M1123.91 563.551H1117.81V564.971H1123.91V563.551Z" fill="white"/>
<path d="M1168.51 560.242H1147.39V561.662H1168.51V560.242Z" fill="white"/>
<path d="M1040.51 109.694V579.764H901.142V255.384C898.653 253.517 897.41 245.424 897.41 245.424L847.636 240.442L843.281 249.782L845.147 580.707H702.648L698.731 236.594C688.757 230.974 693.66 223.678 693.66 223.678C689.607 221.652 691.055 215.28 691.055 215.28C686.426 212.963 687.293 204.276 687.293 204.276C682.953 201.958 684.399 197.615 684.399 197.615C651.699 192.112 643.305 178.503 643.305 178.503C639.761 168.868 639.543 163.442 640.956 157.419C643.168 147.966 703.041 146.373 703.041 146.373L707.641 142.692L705.339 133.027C718.676 117.841 760.068 123.822 760.068 123.822L762.828 115.079L778.004 115.538L779.384 125.203C842.849 124.743 834.571 153.276 834.571 153.276C858.212 154.523 881.856 155.767 905.497 157.014C908.6 153.902 913.185 149.294 918.741 143.671C925.904 136.419 929.52 132.753 931.317 130.784C942.844 118.148 942.496 112.621 948.705 105.876C952.615 101.625 957.48 98.687 962.747 96.7033C970.366 93.8307 978.832 92.9597 986.481 93.0014C997.933 93.0611 1007.56 95.176 1009.79 95.6861C1023.66 98.8809 1034.02 105.035 1040.51 109.694V109.694Z" stroke="white" stroke-width="2" stroke-miterlimit="10"/>
<path d="M779.017 122.637V580.709V580.724H760.068V580.709V123.824" stroke="white" stroke-width="2" stroke-miterlimit="10"/>
<path d="M986.48 579.763V93" stroke="white" stroke-width="2" stroke-miterlimit="10"/>
<path d="M962.746 579.764V96.7032" stroke="white" stroke-width="2" stroke-miterlimit="10"/>
<path d="M707.643 142.694C707.643 142.694 729.737 133.846 760.622 138.213" stroke="white" stroke-width="0.75" stroke-miterlimit="10"/>
<path d="M779.086 139.555C779.086 139.555 821.912 143.815 834.574 153.277" stroke="white" stroke-width="0.75" stroke-miterlimit="10"/>
<path d="M940.554 119.893C945.678 113.011 953.318 108.047 961.685 106.162" stroke="white" stroke-width="0.75" stroke-miterlimit="10"/>
<path d="M929.82 132.89C938.139 124.442 950.134 118.905 962.719 117.709" stroke="white" stroke-width="0.75" stroke-miterlimit="10"/>
<path d="M905.412 157.811C923.428 151.606 942.949 149.835 961.785 152.698" stroke="white" stroke-width="0.75" stroke-miterlimit="10"/>
<path d="M907.997 154.167C925.038 146.474 943.421 142.754 961.718 143.291" stroke="white" stroke-width="0.75" stroke-miterlimit="10"/>
<path d="M915.866 146.577C929.092 137.962 945.967 133.941 962.236 135.531" stroke="white" stroke-width="0.75" stroke-miterlimit="10"/>
<path d="M924.862 137.805C935.7 130.184 949.045 126.198 962.283 126.634" stroke="white" stroke-width="0.75" stroke-miterlimit="10"/>
<path d="M986.569 106.145C993.726 105.411 1009.25 104.877 1025.25 113.462C1032.05 117.11 1037.16 121.448 1040.78 125.144" stroke="white" stroke-width="0.75" stroke-miterlimit="10"/>
<path d="M986.796 119.864C1005.98 115.675 1027.13 122.074 1040.79 136.195" stroke="white" stroke-width="0.75" stroke-miterlimit="10"/>
<path d="M986.476 129.903C992.974 129.073 1008.04 128.089 1023.84 136.185C1031.81 140.272 1037.47 145.381 1041.14 149.355" stroke="white" stroke-width="0.75" stroke-miterlimit="10"/>
<path d="M986.476 138.721C1006.13 139.273 1025.55 146.184 1041.14 158.173" stroke="white" stroke-width="0.75" stroke-miterlimit="10"/>
<path d="M986.476 147.533C1006.13 148.085 1025.55 154.997 1041.14 166.985" stroke="white" stroke-width="0.75" stroke-miterlimit="10"/>
<path d="M986.476 156.356C1006.13 156.907 1025.55 163.819 1041.14 175.808" stroke="white" stroke-width="0.75" stroke-miterlimit="10"/>
<path d="M986.476 165.174C1006.13 165.726 1025.55 172.637 1041.14 184.626" stroke="white" stroke-width="0.75" stroke-miterlimit="10"/>
<path d="M986.476 173.996C1006.13 174.548 1025.55 181.46 1041.14 193.448" stroke="white" stroke-width="0.75" stroke-miterlimit="10"/>
<path d="M986.476 182.809C1006.13 183.361 1025.55 190.272 1041.14 202.261" stroke="white" stroke-width="0.75" stroke-miterlimit="10"/>
<path d="M986.476 191.631C1006.13 192.183 1025.55 199.094 1041.14 211.083" stroke="white" stroke-width="0.75" stroke-miterlimit="10"/>
<path d="M986.944 203.892C1006.11 203.453 1025.35 210.01 1040.27 222.061" stroke="white" stroke-width="0.75" stroke-miterlimit="10"/>
<path d="M986.159 215.58C995.808 216.75 1005.49 217.925 1014.89 220.416C1024.28 222.906 1033.44 226.772 1041.03 232.843" stroke="white" stroke-width="0.75" stroke-miterlimit="10"/>
<path d="M986.195 226.289C1005.48 227.36 1024.48 233.386 1040.85 243.629" stroke="white" stroke-width="0.75" stroke-miterlimit="10"/>
<path d="M986.193 238.022C1005.19 237.145 1024.43 242.831 1039.91 253.894" stroke="white" stroke-width="0.75" stroke-miterlimit="10"/>
<path d="M985.96 250.787C1005.24 252.288 1024.18 258.146 1040.99 267.811" stroke="white" stroke-width="0.75" stroke-miterlimit="10"/>
<path d="M986.182 264.031C1005.13 264.756 1023.9 269.857 1040.54 278.806" stroke="white" stroke-width="0.75" stroke-miterlimit="10"/>
<path d="M986.182 276.6C1005.13 277.325 1023.9 282.426 1040.54 291.375" stroke="white" stroke-width="0.75" stroke-miterlimit="10"/>
<path d="M986.182 289.168C1005.13 289.893 1023.9 294.994 1040.54 303.943" stroke="white" stroke-width="0.75" stroke-miterlimit="10"/>
<path d="M986.182 301.736C1005.13 302.461 1023.9 307.562 1040.54 316.511" stroke="white" stroke-width="0.75" stroke-miterlimit="10"/>
<path d="M986.93 316.284C997.983 315.84 1012.12 316.684 1027.63 321.403C1032.08 322.757 1036.19 324.293 1039.97 325.913" stroke="white" stroke-width="0.75" stroke-miterlimit="10"/>
<path d="M986.93 330.333C998.072 329.888 1012.33 330.733 1027.96 335.452C1032.45 336.806 1036.6 338.342 1040.41 339.962" stroke="white" stroke-width="0.75" stroke-miterlimit="10"/>
<path d="M986.93 342.401C998.072 341.957 1012.33 342.801 1027.96 347.52C1032.45 348.874 1036.6 350.411 1040.41 352.03" stroke="white" stroke-width="0.75" stroke-miterlimit="10"/>
<path d="M986.93 354.472C998.072 354.027 1012.33 354.871 1027.96 359.59C1032.45 360.945 1036.6 362.481 1040.41 364.101" stroke="white" stroke-width="0.75" stroke-miterlimit="10"/>
<path d="M986.93 366.538C998.072 366.094 1012.33 366.938 1027.96 371.657C1032.45 373.011 1036.6 374.547 1040.41 376.167" stroke="white" stroke-width="0.75" stroke-miterlimit="10"/>
<path d="M986.93 378.61C998.072 378.166 1012.33 379.01 1027.96 383.729C1032.45 385.083 1036.6 386.62 1040.41 388.239" stroke="white" stroke-width="0.75" stroke-miterlimit="10"/>
<path d="M986.93 390.677C998.072 390.232 1012.33 391.076 1027.96 395.796C1032.45 397.15 1036.6 398.686 1040.41 400.306" stroke="white" stroke-width="0.75" stroke-miterlimit="10"/>
<path d="M986.93 402.749C998.072 402.304 1012.33 403.149 1027.96 407.868C1032.45 409.222 1036.6 410.758 1040.41 412.378" stroke="white" stroke-width="0.75" stroke-miterlimit="10"/>
<path d="M986.93 414.813C998.072 414.369 1012.33 415.213 1027.96 419.932C1032.45 421.287 1036.6 422.823 1040.41 424.443" stroke="white" stroke-width="0.75" stroke-miterlimit="10"/>
<path d="M986.93 426.89C998.072 426.445 1012.33 427.289 1027.96 432.008C1032.45 433.363 1036.6 434.899 1040.41 436.519" stroke="white" stroke-width="0.75" stroke-miterlimit="10"/>
<path d="M986.93 438.955C999.336 439.409 1013.16 440.879 1027.96 444.074C1032.33 445.014 1036.52 446.052 1040.56 447.158" stroke="white" stroke-width="0.75" stroke-miterlimit="10"/>
<path d="M987.577 451.92C998.162 451.386 1010.61 451.693 1024.33 453.868C1029.96 454.76 1035.23 455.872 1040.12 457.113" stroke="white" stroke-width="0.75" stroke-miterlimit="10"/>
<path d="M987.577 462.738C998.162 462.204 1010.61 462.512 1024.33 464.686C1029.96 465.578 1035.23 466.691 1040.12 467.932" stroke="white" stroke-width="0.75" stroke-miterlimit="10"/>
<path d="M987.577 475.289C998.162 474.755 1010.61 475.062 1024.33 477.237C1029.96 478.129 1035.23 479.241 1040.12 480.482" stroke="white" stroke-width="0.75" stroke-miterlimit="10"/>
<path d="M987.577 487.836C998.162 487.302 1010.61 487.609 1024.33 489.784C1029.96 490.676 1035.23 491.788 1040.12 493.029" stroke="white" stroke-width="0.75" stroke-miterlimit="10"/>
<path d="M987.577 500.389C998.162 499.855 1010.61 500.162 1024.33 502.337C1029.96 503.228 1035.23 504.341 1040.12 505.582" stroke="white" stroke-width="0.75" stroke-miterlimit="10"/>
<path d="M987.577 512.939C998.162 512.405 1010.61 512.713 1024.33 514.887C1029.96 515.779 1035.23 516.892 1040.12 518.133" stroke="white" stroke-width="0.75" stroke-miterlimit="10"/>
<path d="M987.577 525.49C998.162 524.956 1010.61 525.263 1024.33 527.438C1029.96 528.33 1035.23 529.443 1040.12 530.683" stroke="white" stroke-width="0.75" stroke-miterlimit="10"/>
<path d="M987.577 538.037C998.162 537.503 1010.61 537.81 1024.33 539.985C1029.96 540.877 1035.23 541.99 1040.12 543.23" stroke="white" stroke-width="0.75" stroke-miterlimit="10"/>
<path d="M987.577 550.59C998.162 550.056 1010.61 550.363 1024.33 552.538C1029.96 553.43 1035.23 554.542 1040.12 555.783" stroke="white" stroke-width="0.75" stroke-miterlimit="10"/>
<path d="M987.577 563.141C998.162 562.607 1010.61 562.914 1024.33 565.088C1029.96 565.98 1035.23 567.093 1040.12 568.334" stroke="white" stroke-width="0.75" stroke-miterlimit="10"/>
<path d="M703.044 146.373C703.044 146.373 756.544 147.912 759.373 149.935" stroke="white" stroke-width="0.75" stroke-miterlimit="10"/>
<path d="M639.659 165.113C639.659 165.113 658.787 150.159 758.914 160.925" stroke="white" stroke-width="0.75" stroke-miterlimit="10"/>
<path d="M760.107 169.601C760.107 169.601 673.132 157.338 642.346 175.884" stroke="white" stroke-width="0.75" stroke-miterlimit="10"/>
<path d="M778.377 153.365L962.084 167.198" stroke="white" stroke-width="0.75" stroke-miterlimit="10"/>
<path d="M778.377 162.586L962.084 176.418" stroke="white" stroke-width="0.75" stroke-miterlimit="10"/>
<path d="M778.377 171.809L962.084 185.644" stroke="white" stroke-width="0.75" stroke-miterlimit="10"/>
<path d="M778.377 181.027L962.084 194.863" stroke="white" stroke-width="0.75" stroke-miterlimit="10"/>
<path d="M778.377 190.256L962.084 204.088" stroke="white" stroke-width="0.75" stroke-miterlimit="10"/>
<path d="M778.377 198.859C806.308 204.011 837.58 208.351 871.767 210.848C904.458 213.238 934.732 213.572 962.084 212.692" stroke="white" stroke-width="0.75" stroke-miterlimit="10"/>
<path d="M759.384 195.824C759.384 195.824 693.689 190.29 687.292 204.278" stroke="white" stroke-width="0.75" stroke-miterlimit="10"/>
<path d="M759.906 206.523C759.906 206.523 696.519 201.079 691.055 215.281" stroke="white" stroke-width="0.75" stroke-miterlimit="10"/>
<path d="M759.647 215.131C759.647 215.131 693.648 212.652 693.663 223.678" stroke="white" stroke-width="0.75" stroke-miterlimit="10"/>
<path d="M759.646 176.251C759.646 176.251 663.391 169.918 684.4 197.612C685.235 198.713 683.414 194.501 684.028 192.69C685.73 187.685 694.497 186.485 699.934 185.907C720.188 183.747 750.691 184.171 760.168 184.341" stroke="white" stroke-width="0.75" stroke-miterlimit="10"/>
<path d="M759.647 223.482C759.647 223.482 690.751 217.871 698.733 236.592" stroke="white" stroke-width="0.75" stroke-miterlimit="10"/>
<path d="M759.908 231.576C759.908 231.576 714.277 226.096 698.893 238.359" stroke="white" stroke-width="0.75" stroke-miterlimit="10"/>
<path d="M759.908 239.4C759.908 239.4 714.277 233.921 698.893 246.184" stroke="white" stroke-width="0.75" stroke-miterlimit="10"/>
<path d="M759.908 248.871C759.908 248.871 714.277 243.391 698.893 255.654" stroke="white" stroke-width="0.75" stroke-miterlimit="10"/>
<path d="M759.908 258.334C759.908 258.334 714.277 252.854 698.893 265.117" stroke="white" stroke-width="0.75" stroke-miterlimit="10"/>
<path d="M759.908 267.808C759.908 267.808 714.277 262.329 698.893 274.592" stroke="white" stroke-width="0.75" stroke-miterlimit="10"/>
<path d="M759.908 277.277C759.908 277.277 714.277 271.797 698.893 284.061" stroke="white" stroke-width="0.75" stroke-miterlimit="10"/>
<path d="M759.908 286.744C759.908 286.744 714.277 281.264 698.893 293.527" stroke="white" stroke-width="0.75" stroke-miterlimit="10"/>
<path d="M759.908 296.211C759.908 296.211 714.277 290.731 698.893 302.994" stroke="white" stroke-width="0.75" stroke-miterlimit="10"/>
<path d="M759.908 305.678C759.908 305.678 714.277 300.198 698.893 312.461" stroke="white" stroke-width="0.75" stroke-miterlimit="10"/>
<path d="M759.908 315.142C759.908 315.142 714.277 309.663 698.893 321.926" stroke="white" stroke-width="0.75" stroke-miterlimit="10"/>
<path d="M759.908 324.621C759.908 324.621 714.277 319.141 698.893 331.404" stroke="white" stroke-width="0.75" stroke-miterlimit="10"/>
<path d="M759.908 334.084C759.908 334.084 714.277 328.604 698.893 340.867" stroke="white" stroke-width="0.75" stroke-miterlimit="10"/>
<path d="M700.017 349.507C716.382 338.324 759.908 343.55 759.908 343.55" stroke="white" stroke-width="0.75" stroke-miterlimit="10"/>
<path d="M700.124 358.904C716.57 347.816 759.908 353.022 759.908 353.022" stroke="white" stroke-width="0.75" stroke-miterlimit="10"/>
<path d="M700.234 368.298C716.759 357.306 759.91 362.484 759.91 362.484" stroke="white" stroke-width="0.75" stroke-miterlimit="10"/>
<path d="M700.34 377.698C716.946 366.799 759.909 371.959 759.909 371.959" stroke="white" stroke-width="0.75" stroke-miterlimit="10"/>
<path d="M700.447 387.095C717.131 376.291 759.909 381.427 759.909 381.427" stroke="white" stroke-width="0.75" stroke-miterlimit="10"/>
<path d="M700.554 396.492C717.312 385.777 759.908 390.893 759.908 390.893" stroke="white" stroke-width="0.75" stroke-miterlimit="10"/>
<path d="M700.66 405.897C717.487 395.268 759.91 400.363 759.91 400.363" stroke="white" stroke-width="0.75" stroke-miterlimit="10"/>
<path d="M700.766 415.294C717.668 404.752 759.909 409.826 759.909 409.826" stroke="white" stroke-width="0.75" stroke-miterlimit="10"/>
<path d="M700.873 424.702C717.843 414.25 759.909 419.3 759.909 419.3" stroke="white" stroke-width="0.75" stroke-miterlimit="10"/>
<path d="M700.98 434.105C718.022 423.742 759.909 428.771 759.909 428.771" stroke="white" stroke-width="0.75" stroke-miterlimit="10"/>
<path d="M701.087 443.502C718.197 433.226 759.908 438.234 759.908 438.234" stroke="white" stroke-width="0.75" stroke-miterlimit="10"/>
<path d="M701.197 452.91C718.372 442.717 759.911 447.705 759.911 447.705" stroke="white" stroke-width="0.75" stroke-miterlimit="10"/>
<path d="M701.3 462.313C718.539 452.207 759.907 457.174 759.907 457.174" stroke="white" stroke-width="0.75" stroke-miterlimit="10"/>
<path d="M701.411 471.719C718.714 461.696 759.91 466.642 759.91 466.642" stroke="white" stroke-width="0.75" stroke-miterlimit="10"/>
<path d="M701.517 481.134C718.883 471.185 759.909 476.113 759.909 476.113" stroke="white" stroke-width="0.75" stroke-miterlimit="10"/>
<path d="M701.625 490.536C719.051 480.671 759.91 485.578 759.91 485.578" stroke="white" stroke-width="0.75" stroke-miterlimit="10"/>
<path d="M701.735 499.946C719.22 490.162 759.912 495.048 759.912 495.048" stroke="white" stroke-width="0.75" stroke-miterlimit="10"/>
<path d="M701.838 509.354C719.383 499.654 759.908 504.519 759.908 504.519" stroke="white" stroke-width="0.75" stroke-miterlimit="10"/>
<path d="M701.943 518.769C719.545 509.143 759.909 513.99 759.909 513.99" stroke="white" stroke-width="0.75" stroke-miterlimit="10"/>
<path d="M702.052 528.174C719.707 518.628 759.91 523.455 759.91 523.455" stroke="white" stroke-width="0.75" stroke-miterlimit="10"/>
<path d="M702.157 537.587C719.869 528.113 759.908 532.922 759.908 532.922" stroke="white" stroke-width="0.75" stroke-miterlimit="10"/>
<path d="M702.265 546.99C720.031 537.596 759.909 542.384 759.909 542.384" stroke="white" stroke-width="0.75" stroke-miterlimit="10"/>
<path d="M702.374 556.411C720.19 547.089 759.91 551.859 759.91 551.859" stroke="white" stroke-width="0.75" stroke-miterlimit="10"/>
<path d="M702.481 565.826C720.351 556.584 759.91 561.333 759.91 561.333" stroke="white" stroke-width="0.75" stroke-miterlimit="10"/>
<path d="M702.585 575.234C720.506 566.068 759.907 570.799 759.907 570.799" stroke="white" stroke-width="0.75" stroke-miterlimit="10"/>
<path d="M780.509 208.111C780.509 208.111 846.675 217.973 849.772 223.044C852.869 228.115 850.272 231.331 850.272 231.331" stroke="white" stroke-width="0.75" stroke-miterlimit="10"/>
<path d="M780.509 216.283C780.509 216.283 846.171 226.491 849.772 231.216C854.255 237.099 847.64 240.44 847.64 240.44" stroke="white" stroke-width="0.75" stroke-miterlimit="10"/>
<path d="M963.195 215.367C963.195 215.367 897.688 224.612 894.62 229.367C891.553 234.121 894.126 237.134 894.126 237.134" stroke="white" stroke-width="0.75" stroke-miterlimit="10"/>
<path d="M963.194 223.027C963.194 223.027 898.185 232.597 894.62 237.027C890.181 242.542 896.73 245.674 896.73 245.674" stroke="white" stroke-width="0.75" stroke-miterlimit="10"/>
<path d="M780.509 225.018C780.509 225.018 843.658 234.88 846.615 239.951C847.604 241.651 847.36 242.749 846.591 243.459" stroke="white" stroke-width="0.75" stroke-miterlimit="10"/>
<path d="M779.772 232.6C779.772 232.6 833.782 234.312 843.282 249.782" stroke="white" stroke-width="0.75" stroke-miterlimit="10"/>
<path d="M779.507 239.822C779.507 239.822 834.333 243.301 842.891 254.809" stroke="white" stroke-width="0.75" stroke-miterlimit="10"/>
<path d="M779.507 247.584C779.507 247.584 834.333 251.062 842.891 262.571" stroke="white" stroke-width="0.75" stroke-miterlimit="10"/>
<path d="M779.507 257.063C779.507 257.063 834.333 260.541 842.891 272.049" stroke="white" stroke-width="0.75" stroke-miterlimit="10"/>
<path d="M779.507 266.533C779.507 266.533 834.333 270.011 842.891 281.52" stroke="white" stroke-width="0.75" stroke-miterlimit="10"/>
<path d="M779.507 276C779.507 276 834.333 279.478 842.891 290.987" stroke="white" stroke-width="0.75" stroke-miterlimit="10"/>
<path d="M779.507 285.483C779.507 285.483 835.368 288.961 844.09 300.469" stroke="white" stroke-width="0.75" stroke-miterlimit="10"/>
<path d="M779.507 294.953C779.507 294.953 835.368 298.431 844.09 309.94" stroke="white" stroke-width="0.75" stroke-miterlimit="10"/>
<path d="M779.507 304.424C779.507 304.424 835.368 307.902 844.09 319.411" stroke="white" stroke-width="0.75" stroke-miterlimit="10"/>
<path d="M779.507 313.899C779.507 313.899 835.368 317.377 844.09 328.885" stroke="white" stroke-width="0.75" stroke-miterlimit="10"/>
<path d="M779.507 323.367C779.507 323.367 835.368 326.845 844.09 338.354" stroke="white" stroke-width="0.75" stroke-miterlimit="10"/>
<path d="M779.507 332.84C779.507 332.84 835.368 336.318 844.09 347.827" stroke="white" stroke-width="0.75" stroke-miterlimit="10"/>
<path d="M779.507 342.315C779.507 342.315 835.368 345.793 844.09 357.301" stroke="white" stroke-width="0.75" stroke-miterlimit="10"/>
<path d="M779.507 351.787C779.507 351.787 835.368 355.265 844.09 366.774" stroke="white" stroke-width="0.75" stroke-miterlimit="10"/>
<path d="M779.507 361.256C779.507 361.256 835.368 364.734 844.09 376.243" stroke="white" stroke-width="0.75" stroke-miterlimit="10"/>
<path d="M779.507 370.736C779.507 370.736 835.368 374.215 844.09 385.723" stroke="white" stroke-width="0.75" stroke-miterlimit="10"/>
<path d="M779.507 380.205C779.507 380.205 835.368 383.683 844.09 395.192" stroke="white" stroke-width="0.75" stroke-miterlimit="10"/>
<path d="M779.507 389.678C779.507 389.678 835.368 393.156 844.09 404.664" stroke="white" stroke-width="0.75" stroke-miterlimit="10"/>
<path d="M779.507 399.147C779.507 399.147 835.368 402.625 844.09 414.133" stroke="white" stroke-width="0.75" stroke-miterlimit="10"/>
<path d="M779.507 408.623C779.507 408.623 835.368 412.101 844.09 423.61" stroke="white" stroke-width="0.75" stroke-miterlimit="10"/>
<path d="M779.507 418.094C779.507 418.094 835.368 421.572 844.09 433.08" stroke="white" stroke-width="0.75" stroke-miterlimit="10"/>
<path d="M779.507 427.565C779.507 427.565 835.368 431.043 844.09 442.551" stroke="white" stroke-width="0.75" stroke-miterlimit="10"/>
<path d="M779.507 437.041C779.507 437.041 835.368 440.519 844.09 452.028" stroke="white" stroke-width="0.75" stroke-miterlimit="10"/>
<path d="M779.507 446.514C779.507 446.514 835.368 449.992 844.09 461.5" stroke="white" stroke-width="0.75" stroke-miterlimit="10"/>
<path d="M779.381 458.428C804.298 458.664 834.031 462.935 844.497 469.25" stroke="white" stroke-width="0.75" stroke-miterlimit="10"/>
<path d="M779.133 468.719C797.566 469.089 834.034 471.762 844.497 478.077" stroke="white" stroke-width="0.75" stroke-miterlimit="10"/>
<path d="M779.133 479.863C797.566 480.233 834.034 481.116 844.497 487.431" stroke="white" stroke-width="0.75" stroke-miterlimit="10"/>
<path d="M779.133 489.649C797.566 490.018 833.983 490.89 844.497 496.023" stroke="white" stroke-width="0.75" stroke-miterlimit="10"/>
<path d="M779.133 500.306C788.937 500.238 832.35 499.465 844.497 503.996" stroke="white" stroke-width="0.75" stroke-miterlimit="10"/>
<path d="M779.133 507.914C788.937 507.845 832.35 507.073 844.497 511.604" stroke="white" stroke-width="0.75" stroke-miterlimit="10"/>
<path d="M779.133 515.527C788.937 515.458 832.35 514.686 844.497 519.217" stroke="white" stroke-width="0.75" stroke-miterlimit="10"/>
<path d="M779.133 523.134C788.937 523.066 832.35 522.293 844.497 526.824" stroke="white" stroke-width="0.75" stroke-miterlimit="10"/>
<path d="M779.133 530.752C788.937 530.683 832.35 529.91 844.497 534.442" stroke="white" stroke-width="0.75" stroke-miterlimit="10"/>
<path d="M779.133 538.367C788.937 538.298 832.35 537.526 844.497 542.057" stroke="white" stroke-width="0.75" stroke-miterlimit="10"/>
<path d="M779.133 545.974C788.937 545.906 832.35 545.133 844.497 549.664" stroke="white" stroke-width="0.75" stroke-miterlimit="10"/>
<path d="M779.133 553.588C788.937 553.519 832.35 552.746 844.497 557.278" stroke="white" stroke-width="0.75" stroke-miterlimit="10"/>
<path d="M779.133 561.199C788.937 561.13 832.35 560.358 844.497 564.889" stroke="white" stroke-width="0.75" stroke-miterlimit="10"/>
<path d="M779.133 568.814C788.937 568.746 832.35 567.973 844.497 572.504" stroke="white" stroke-width="0.75" stroke-miterlimit="10"/>
<path d="M963.195 232.6C963.195 232.6 910.464 234.312 901.19 249.782" stroke="white" stroke-width="0.75" stroke-miterlimit="10"/>
<path d="M963.455 243.24C963.455 243.24 909.928 246.719 901.573 258.227" stroke="white" stroke-width="0.75" stroke-miterlimit="10"/>
<path d="M963.455 252.783C963.455 252.783 909.928 256.262 901.573 267.77" stroke="white" stroke-width="0.75" stroke-miterlimit="10"/>
<path d="M963.455 262.322C963.455 262.322 909.928 265.801 901.573 277.309" stroke="white" stroke-width="0.75" stroke-miterlimit="10"/>
<path d="M963.455 271.863C963.455 271.863 909.928 275.342 901.573 286.85" stroke="white" stroke-width="0.75" stroke-miterlimit="10"/>
<path d="M963.455 281.404C963.455 281.404 909.928 284.883 901.573 296.391" stroke="white" stroke-width="0.75" stroke-miterlimit="10"/>
<path d="M963.452 290.947C963.452 290.947 908.914 294.426 900.401 305.934" stroke="white" stroke-width="0.75" stroke-miterlimit="10"/>
<path d="M963.453 300.486C963.453 300.486 910.266 303.964 901.961 315.473" stroke="white" stroke-width="0.75" stroke-miterlimit="10"/>
<path d="M963.453 310.031C963.453 310.031 910.266 313.51 901.961 325.018" stroke="white" stroke-width="0.75" stroke-miterlimit="10"/>
<path d="M963.453 319.574C963.453 319.574 910.266 323.052 901.961 334.561" stroke="white" stroke-width="0.75" stroke-miterlimit="10"/>
<path d="M963.453 329.115C963.453 329.115 910.266 332.594 901.961 344.102" stroke="white" stroke-width="0.75" stroke-miterlimit="10"/>
<path d="M963.453 338.656C963.453 338.656 910.266 342.135 901.961 353.643" stroke="white" stroke-width="0.75" stroke-miterlimit="10"/>
<path d="M963.453 348.197C963.453 348.197 910.266 351.676 901.961 363.184" stroke="white" stroke-width="0.75" stroke-miterlimit="10"/>
<path d="M963.453 357.738C963.453 357.738 910.266 361.217 901.961 372.725" stroke="white" stroke-width="0.75" stroke-miterlimit="10"/>
<path d="M963.453 367.279C963.453 367.279 910.266 370.758 901.961 382.266" stroke="white" stroke-width="0.75" stroke-miterlimit="10"/>
<path d="M963.453 376.815C963.453 376.815 910.266 380.293 901.961 391.801" stroke="white" stroke-width="0.75" stroke-miterlimit="10"/>
<path d="M963.453 386.363C963.453 386.363 910.266 389.842 901.961 401.35" stroke="white" stroke-width="0.75" stroke-miterlimit="10"/>
<path d="M963.453 395.902C963.453 395.902 910.266 399.381 901.961 410.889" stroke="white" stroke-width="0.75" stroke-miterlimit="10"/>
<path d="M963.453 405.449C963.453 405.449 910.266 408.927 901.961 420.436" stroke="white" stroke-width="0.75" stroke-miterlimit="10"/>
<path d="M963.453 414.988C963.453 414.988 910.266 418.467 901.961 429.975" stroke="white" stroke-width="0.75" stroke-miterlimit="10"/>
<path d="M963.453 424.533C963.453 424.533 910.266 428.011 901.961 439.52" stroke="white" stroke-width="0.75" stroke-miterlimit="10"/>
<path d="M963.453 434.072C963.453 434.072 910.266 437.551 901.961 449.059" stroke="white" stroke-width="0.75" stroke-miterlimit="10"/>
<path d="M963.453 443.616C963.453 443.616 910.266 447.094 901.961 458.602" stroke="white" stroke-width="0.75" stroke-miterlimit="10"/>
<path d="M963.453 453.152C963.453 453.152 910.266 456.631 901.961 468.139" stroke="white" stroke-width="0.75" stroke-miterlimit="10"/>
<path d="M963.574 464.785C939.85 465.021 911.538 469.293 901.573 475.608" stroke="white" stroke-width="0.75" stroke-miterlimit="10"/>
<path d="M963.81 475.053C946.259 475.423 911.538 478.096 901.573 484.411" stroke="white" stroke-width="0.75" stroke-miterlimit="10"/>
<path d="M963.81 485.49C946.259 485.86 911.538 486.743 901.573 493.058" stroke="white" stroke-width="0.75" stroke-miterlimit="10"/>
<path d="M963.81 495.631C946.259 496.001 911.582 496.872 901.573 502.006" stroke="white" stroke-width="0.75" stroke-miterlimit="10"/>
<path d="M963.81 506.558C954.474 506.49 913.138 505.717 901.573 510.248" stroke="white" stroke-width="0.75" stroke-miterlimit="10"/>
<path d="M963.81 516.099C954.474 516.031 913.138 515.258 901.573 519.789" stroke="white" stroke-width="0.75" stroke-miterlimit="10"/>
<path d="M963.81 525.644C954.474 525.576 913.138 524.803 901.573 529.334" stroke="white" stroke-width="0.75" stroke-miterlimit="10"/>
<path d="M963.81 535.179C954.474 535.111 913.138 534.338 901.573 538.869" stroke="white" stroke-width="0.75" stroke-miterlimit="10"/>
<path d="M963.81 544.72C954.474 544.652 913.138 543.879 901.573 548.41" stroke="white" stroke-width="0.75" stroke-miterlimit="10"/>
<path d="M963.81 554.263C954.474 554.195 913.138 553.422 901.573 557.953" stroke="white" stroke-width="0.75" stroke-miterlimit="10"/>
<path d="M963.81 563.805C954.474 563.736 913.138 562.963 901.573 567.494" stroke="white" stroke-width="0.75" stroke-miterlimit="10"/>
<path d="M570.495 302.969H605.184L604.584 301.673C594.173 279.442 580.618 264.966 571.094 256.732C565.097 251.546 561.043 249.121 560.875 249.025L559.507 248.209V294.663C559.507 299.248 563.226 302.969 567.808 302.969H570.519H570.495ZM571.406 259.444C580.474 267.583 592.637 281.075 602.305 301.145H571.406V259.444ZM561.306 294.663V251.498C562.938 252.578 565.888 254.691 569.583 257.86V301.169H567.784C564.209 301.169 561.306 298.264 561.306 294.687V294.663Z" fill="white"/>
<path d="M621.593 379.242C624.112 379.242 626.463 378.09 628.022 376.097C629.582 374.105 630.109 371.536 629.486 369.087L623.992 347.409C620.513 333.629 608.159 324.002 593.933 324.002H558.404V379.242H621.569H621.593ZM571.406 370.216H619.218V368.391H571.406V362.173H617.827V360.349H571.406V353.075H615.739V351.25H571.406V343.976H612.477V342.151H571.406V334.877H605.784V333.053H571.406V325.85H593.957C607.319 325.85 618.954 334.901 622.241 347.865L627.734 369.543C628.214 371.44 627.806 373.433 626.607 374.969C625.407 376.53 623.584 377.418 621.617 377.418H571.43V370.216H571.406ZM569.583 333.965V377.418H560.251V325.826H569.583V333.941V333.965Z" fill="white"/>
<path d="M624.954 386.973H558.43V441.517H636.517L633.638 395.159C633.35 390.574 629.536 386.973 624.954 386.973ZM569.585 394.655V439.692H560.253V388.821H569.585V394.679V394.655ZM571.408 439.692V431.962H620.636V430.138H571.408V422.863H620.636V421.039H571.408V413.765H620.636V411.94H571.408V404.666H620.636V402.841H571.408V395.567H620.636V393.743H571.408V388.797H624.954C628.576 388.797 631.599 391.63 631.815 395.255L634.574 439.668H571.408V439.692Z" fill="white"/>
<path d="M655.491 465.379C656.618 464.491 657.53 463.242 658.082 461.778C658.993 459.305 658.705 456.665 657.338 454.768C654.651 451.047 649.421 450.711 645.751 451.575C645.583 451.623 645.391 451.671 645.223 451.719C645.559 443.677 645.511 435.082 645.103 426.103C643.592 393.069 632.221 281.58 549.552 231.237V183.703C549.552 181.854 548.04 180.342 546.193 180.342H544.274C542.427 180.342 540.915 181.854 540.915 183.703V226.34L540.723 226.244V306.043H519.468V310.125C517.813 311.109 516.661 312.909 516.661 314.974V315.286C516.661 318.407 519.204 320.952 522.323 320.952H540.723V463.675C538.108 463.819 535.613 464.827 533.814 466.531C533.502 465.787 533.238 465.019 532.975 464.203C532.207 461.946 531.415 459.641 529.616 457.913C528.824 457.169 527.865 456.568 526.737 456.088C522.299 454.264 516.709 455.536 513.159 459.161C510.184 462.186 508.649 466.724 509.009 471.237C501.86 469.7 493.799 472.893 489.793 479.015C489.529 479.447 489.625 480 490.057 480.288C490.201 480.384 490.393 480.432 490.56 480.432C490.848 480.432 491.16 480.288 491.328 480.024C495.167 474.166 503.131 471.285 509.824 473.326C510.136 473.422 510.448 473.326 510.688 473.133C510.928 472.917 511.048 472.605 511 472.293C510.28 467.876 511.624 463.339 514.502 460.41C517.549 457.289 522.323 456.208 526.089 457.745C527.001 458.129 527.793 458.609 528.416 459.209C529.904 460.602 530.576 462.618 531.295 464.755C531.727 466.027 532.159 467.324 532.807 468.548C532.951 468.836 533.214 469.004 533.526 469.028C533.838 469.028 534.15 468.932 534.318 468.668C535.757 466.796 538.18 465.595 540.747 465.451V484.273H527.985V486.097H540.747V500.19H541.659V501.102H635.099V500.19L635.939 500.55C639.49 492.507 643.952 477.863 645.127 453.592C645.463 453.496 645.799 453.376 646.135 453.304C649.253 452.583 653.668 452.799 655.851 455.776C656.882 457.193 657.074 459.185 656.378 461.082C655.683 463.002 654.243 464.371 652.54 464.779C652.108 464.875 651.82 465.259 651.844 465.715C651.844 466.147 652.18 466.507 652.612 466.579C658.801 467.54 664.463 471.069 668.517 475.918V473.085C664.967 469.412 660.481 466.627 655.515 465.331L655.491 465.379ZM542.738 183.703C542.738 182.863 543.434 182.166 544.274 182.166H546.193C547.033 182.166 547.728 182.863 547.728 183.703V230.133C546.097 229.172 544.418 228.212 542.762 227.3V183.703H542.738ZM521.291 307.868H559.795V309.308H521.291V307.868ZM522.323 319.103C520.212 319.103 518.509 317.375 518.509 315.286V314.974C518.509 312.861 520.236 311.157 522.323 311.157H558.764C560.875 311.157 562.578 312.885 562.578 314.974V315.286C562.578 317.399 560.851 319.103 558.764 319.103H522.323ZM542.547 499.301V320.928H550.199C549 336.389 545.617 385.387 546.625 430.185C547.584 472.365 548.64 489.266 556.005 499.277H542.547V499.301ZM623.824 499.301H571.07C559.483 485.737 560.011 456.448 560.203 451.071H570.063C569.871 453.279 569.679 456.352 569.607 459.929C569.559 462.642 569.607 465.331 569.703 467.924C569.823 470.685 570.063 473.374 570.399 475.918L571.31 475.798L570.399 475.918C570.759 478.751 571.262 481.44 571.91 483.961L572.798 483.745L571.91 483.961C572.654 486.914 573.589 489.626 574.669 492.051C575.701 494.332 576.876 496.348 578.171 498.053L579.635 496.949C578.675 495.676 577.788 494.212 576.972 492.579H619.194V490.755H576.108C575.293 488.906 574.597 486.842 573.997 484.657H621.617V482.832H573.541C573.086 480.912 572.702 478.847 572.39 476.735H623.488V474.91H572.15C571.91 472.941 571.742 470.901 571.622 468.812H624.832V466.988H571.526C571.454 464.995 571.43 462.954 571.454 460.89H627.639V459.065H571.478C571.55 455.848 571.742 453.087 571.91 451.095H632.772C632.7 456.256 631.933 482.136 623.824 499.325V499.301ZM643.352 452.871C642.272 476.735 638.002 491.211 634.524 499.301H625.839C634.668 479.831 634.62 450.447 634.62 450.159V449.246H558.476L558.428 450.111C558.332 451.503 556.557 483.385 568.719 499.301H558.308C550.871 490.347 549.504 476.23 548.448 430.161C547.44 385.291 550.847 336.22 552.023 320.928H558.764C561.882 320.928 564.425 318.383 564.425 315.262V314.95C564.425 312.885 563.298 311.085 561.618 310.101V306.043H542.547V229.292C544.442 230.325 546.313 231.405 548.16 232.509L548.64 231.717L548.16 232.509C630.445 282.252 641.769 393.31 643.28 426.175C643.712 435.538 643.736 444.541 643.352 452.871Z" fill="white"/>
<path d="M1085.22 247.396C1085.48 247.56 1085.73 247.758 1086.01 247.881C1088.9 249.144 1091.79 250.398 1094.69 251.648C1094.96 251.768 1095.18 251.847 1095.13 252.258C1094.97 253.812 1095.61 254.377 1097.16 254.089C1097.22 254.078 1097.28 254.08 1097.41 254.073C1098.03 255.511 1098.66 256.962 1099.28 258.414C1100 260.083 1100.71 261.755 1101.44 263.423C1101.74 264.128 1102.03 264.176 1102.59 263.627C1103.3 262.92 1103.99 262.185 1104.73 261.505C1105.11 261.152 1105.15 260.808 1105.02 260.332C1104.25 257.534 1103.51 254.725 1102.73 251.929C1102.6 251.479 1102.65 251.234 1103.06 250.959C1106.47 248.639 1109.64 246.011 1112.74 243.285C1112.91 243.137 1113.08 242.991 1113.3 242.803C1114.22 244.89 1115.11 246.914 1116 248.939C1118.07 253.662 1120.15 258.386 1122.23 263.11C1122.57 263.905 1122.83 263.957 1123.44 263.354C1124.42 262.38 1125.39 261.393 1126.38 260.43C1126.7 260.119 1126.79 259.83 1126.67 259.377C1126 256.832 1125.38 254.274 1124.71 251.727C1124.62 251.367 1124.69 251.149 1124.94 250.905C1125.62 250.254 1126.28 249.584 1126.94 248.911C1127.9 247.935 1127.92 246.559 1127.02 245.659C1126.13 244.77 1124.8 244.785 1123.82 245.71C1123.64 245.88 1123.5 246.096 1123.23 246.429C1122.89 245.313 1122.61 244.394 1122.33 243.472C1121.65 241.234 1120.98 238.991 1120.29 236.758C1120.17 236.37 1120.22 236.119 1120.51 235.821C1123.12 233.104 1125.66 230.312 1127.7 227.132C1128.57 225.771 1129.27 224.286 1129.93 222.802C1130.19 222.205 1130.21 221.449 1130.16 220.779C1130.09 219.723 1129.29 219.063 1128.23 219.007C1126.79 218.93 1125.53 219.518 1124.31 220.167C1121.37 221.731 1118.82 223.825 1116.33 226.012C1115.27 226.951 1114.25 227.95 1113.18 228.892C1113 229.052 1112.65 229.183 1112.44 229.118C1109.35 228.147 1106.28 227.14 1103.2 226.139C1103.13 226.114 1103.06 226.057 1102.82 225.914C1103.08 225.732 1103.31 225.613 1103.48 225.436C1104.44 224.468 1104.47 223.086 1103.56 222.189C1102.64 221.279 1101.31 221.317 1100.31 222.293C1099.66 222.936 1098.99 223.575 1098.37 224.251C1098.08 224.561 1097.81 224.6 1097.43 224.501C1094.94 223.851 1092.45 223.23 1089.97 222.575C1089.47 222.443 1089.11 222.517 1088.74 222.907C1087.84 223.866 1086.89 224.779 1085.96 225.713C1085.25 226.422 1085.29 226.647 1086.2 227.04C1092.75 229.885 1099.3 232.731 1105.85 235.577C1106.04 235.659 1106.23 235.75 1106.36 235.814C1103.48 239.433 1100.61 243.037 1097.68 246.716C1095.26 246.032 1092.66 245.406 1090.13 244.542C1088.7 244.051 1087.7 244.198 1086.8 245.43C1086.36 246.028 1085.75 246.496 1085.22 247.023L1085.22 247.4L1085.22 247.396Z" fill="white"/>
<path d="M1093.21 252C1027.26 332.833 855.982 456.1 698.496 302.5" stroke="white" stroke-width="2" stroke-dasharray="6 6"/>
</svg>
